<svg width="163" height="65" viewBox="0 0 163 65" fill="none" xmlns="http://www.w3.org/2000/svg">
<path d="M0 0H153C158.523 0 163 4.47715 163 10V55C163 60.5228 158.523 65 153 65H0V0Z" fill="#0B1CBD"/>
<circle cx="17.5" cy="53.5" r="4.5" fill="white" fill-opacity="0.15"/>
<circle cx="34.5" cy="53.5" r="4.5" fill="white" fill-opacity="0.15"/>
<circle cx="50.5" cy="53.5" r="4.5" fill="white" fill-opacity="0.15"/>
<circle cx="67.5" cy="53.5" r="4.5" fill="white" fill-opacity="0.15"/>
<circle cx="17.5" cy="39.5" r="4.5" fill="white" fill-opacity="0.15"/>
<circle cx="34.5" cy="39.5" r="4.5" fill="white" fill-opacity="0.15"/>
<circle cx="50.5" cy="39.5" r="4.5" fill="white" fill-opacity="0.15"/>
<circle cx="67.5" cy="39.5" r="4.5" fill="white" fill-opacity="0.15"/>
<circle cx="17.5" cy="25.5" r="4.5" fill="white" fill-opacity="0.15"/>
<circle cx="34.5" cy="25.5" r="4.5" fill="white" fill-opacity="0.15"/>
<circle cx="50.5" cy="25.5" r="4.5" fill="white" fill-opacity="0.15"/>
<circle cx="67.5" cy="25.5" r="4.5" fill="white" fill-opacity="0.15"/>
<circle cx="18.5" cy="11.5" r="4.5" fill="white" fill-opacity="0.15"/>
<circle cx="35.5" cy="11.5" r="4.5" fill="white" fill-opacity="0.15"/>
<circle cx="51.5" cy="11.5" r="4.5" fill="white" fill-opacity="0.15"/>
<circle cx="68.5" cy="11.5" r="4.5" fill="white" fill-opacity="0.15"/>
<circle cx="81.5" cy="53.5" r="4.5" fill="white" fill-opacity="0.15"/>
<circle cx="98.5" cy="53.5" r="4.5" fill="white" fill-opacity="0.15"/>
<circle cx="114.5" cy="53.5" r="4.5" fill="white" fill-opacity="0.15"/>
<circle cx="131.5" cy="53.5" r="4.5" fill="white" fill-opacity="0.15"/>
<circle cx="81.5" cy="39.5" r="4.5" fill="white" fill-opacity="0.15"/>
<circle cx="98.5" cy="39.5" r="4.5" fill="white" fill-opacity="0.15"/>
<circle cx="114.5" cy="39.5" r="4.5" fill="white" fill-opacity="0.15"/>
<circle cx="131.5" cy="39.5" r="4.5" fill="white" fill-opacity="0.15"/>
<circle cx="81.5" cy="25.5" r="4.5" fill="white" fill-opacity="0.15"/>
<circle cx="98.5" cy="25.5" r="4.5" fill="white" fill-opacity="0.15"/>
<circle cx="114.5" cy="25.5" r="4.5" fill="white" fill-opacity="0.15"/>
<circle cx="131.5" cy="25.5" r="4.5" fill="white" fill-opacity="0.15"/>
<circle cx="82.5" cy="11.5" r="4.5" fill="white" fill-opacity="0.15"/>
<circle cx="99.5" cy="11.5" r="4.5" fill="white" fill-opacity="0.15"/>
<circle cx="115.5" cy="11.5" r="4.5" fill="white" fill-opacity="0.15"/>
<circle cx="132.5" cy="11.5" r="4.5" fill="white" fill-opacity="0.15"/>
<circle cx="145.5" cy="53.5" r="4.5" fill="white" fill-opacity="0.15"/>
<circle cx="145.5" cy="39.5" r="4.5" fill="white" fill-opacity="0.15"/>
<circle cx="145.5" cy="25.5" r="4.5" fill="white" fill-opacity="0.15"/>
<circle cx="146.5" cy="11.5" r="4.5" fill="white" fill-opacity="0.15"/>
</svg>
