<?xml version="1.0" encoding="utf-8"?>
<!-- Generator: Adobe Illustrator 19.1.0, SVG Export Plug-In . SVG Version: 6.00 Build 0)  -->
<svg version="1.1" id="Слой_1" xmlns="http://www.w3.org/2000/svg" xmlns:xlink="http://www.w3.org/1999/xlink" x="0px" y="0px"
	 viewBox="0 0 283.5 283.5" style="enable-background:new 0 0 283.5 283.5;" xml:space="preserve">
<style type="text/css">
	.st0{fill:#010202;}
</style>
<path class="st0" d="M144.4,14.2h-0.6v166.7c5.4,1.2,9.4,6,9.4,11.8v22.2c0,7.3-4.3,11.9-11.4,11.9c-7.1,0-11.4-4.6-11.4-11.9v-22.2
	c0-5.8,4-10.6,9.4-11.8V14.2h-0.6c-3.6,29.4-20.2,136.2-70.2,189.6v0.1l14.5,39.8c9.4-9.6,20.3-18.6,20.3-18.6l4.2,7.3l-17.7,30.5
	l16,6.5l16.4-11.7l5.4,9.4h13.7h13.7l5.5-9.4l16.4,11.7l16-6.5l-17.7-30.5l4.2-7.3c0,0,10.9,9,20.3,18.6l14.5-39.8v-0.1
	C164.6,150.4,148,43.5,144.4,14.2"/>
</svg>
