<svg width="467" height="501" viewBox="0 0 467 501" fill="none" xmlns="http://www.w3.org/2000/svg">
<circle cx="17.3765" cy="243.781" r="9.45733" transform="rotate(-45.2815 17.3765 243.781)" fill="#F9F9F9"/>
<circle cx="40.1909" cy="220.742" r="9.45733" transform="rotate(-45.2815 40.1909 220.742)" fill="#F9F9F9"/>
<circle cx="63.0054" cy="197.7" r="9.45733" transform="rotate(-45.2815 63.0054 197.7)" fill="#F9F9F9"/>
<circle cx="85.8218" cy="174.66" r="9.45733" transform="rotate(-45.2815 85.8218 174.66)" fill="#F9F9F9"/>
<circle cx="108.636" cy="151.619" r="9.45733" transform="rotate(-45.2815 108.636 151.619)" fill="#F9F9F9"/>
<circle cx="131.451" cy="128.58" r="9.45733" transform="rotate(-45.2815 131.451 128.58)" fill="#F9F9F9"/>
<circle cx="154.265" cy="105.538" r="9.45733" transform="rotate(-45.2815 154.265 105.538)" fill="#F9F9F9"/>
<circle cx="177.082" cy="82.4983" r="9.45733" transform="rotate(-45.2815 177.082 82.4983)" fill="#F9F9F9"/>
<circle cx="199.898" cy="59.4572" r="9.45733" transform="rotate(-45.2815 199.898 59.4572)" fill="#F9F9F9"/>
<circle cx="222.71" cy="36.4177" r="9.45733" transform="rotate(-45.2815 222.71 36.4177)" fill="#F9F9F9"/>
<circle cx="245.529" cy="13.3767" r="9.45733" transform="rotate(-45.2815 245.529 13.3767)" fill="#F9F9F9"/>
<circle cx="40.4175" cy="266.596" r="9.45733" transform="rotate(-45.2815 40.4175 266.596)" fill="#F9F9F9"/>
<circle cx="63.2319" cy="243.557" r="9.45733" transform="rotate(-45.2815 63.2319 243.557)" fill="#F9F9F9"/>
<circle cx="86.0464" cy="220.515" r="9.45733" transform="rotate(-45.2815 86.0464 220.515)" fill="#F9F9F9"/>
<circle cx="108.861" cy="197.475" r="9.45733" transform="rotate(-45.2815 108.861 197.475)" fill="#F9F9F9"/>
<circle cx="131.677" cy="174.434" r="9.45733" transform="rotate(-45.2815 131.677 174.434)" fill="#F9F9F9"/>
<circle cx="154.492" cy="151.395" r="9.45733" transform="rotate(-45.2815 154.492 151.395)" fill="#F9F9F9"/>
<circle cx="177.306" cy="128.353" r="9.45733" transform="rotate(-45.2815 177.306 128.353)" fill="#F9F9F9"/>
<circle cx="200.123" cy="105.313" r="9.45733" transform="rotate(-45.2815 200.123 105.313)" fill="#F9F9F9"/>
<circle cx="222.937" cy="82.2722" r="9.45733" transform="rotate(-45.2815 222.937 82.2722)" fill="#F9F9F9"/>
<circle cx="245.751" cy="59.2326" r="9.45733" transform="rotate(-45.2815 245.751 59.2326)" fill="#F9F9F9"/>
<circle cx="268.57" cy="36.1916" r="9.45733" transform="rotate(-45.2815 268.57 36.1916)" fill="#F9F9F9"/>
<circle cx="63.4566" cy="289.412" r="9.45733" transform="rotate(-45.2815 63.4566 289.412)" fill="#F9F9F9"/>
<circle cx="86.273" cy="266.372" r="9.45733" transform="rotate(-45.2815 86.273 266.372)" fill="#F9F9F9"/>
<circle cx="109.087" cy="243.33" r="9.45733" transform="rotate(-45.2815 109.087 243.33)" fill="#F9F9F9"/>
<circle cx="131.902" cy="220.291" r="9.45733" transform="rotate(-45.2815 131.902 220.291)" fill="#F9F9F9"/>
<circle cx="154.718" cy="197.25" r="9.45733" transform="rotate(-45.2815 154.718 197.25)" fill="#F9F9F9"/>
<circle cx="177.533" cy="174.21" r="9.45733" transform="rotate(-45.2815 177.533 174.21)" fill="#F9F9F9"/>
<circle cx="200.347" cy="151.169" r="9.45733" transform="rotate(-45.2815 200.347 151.169)" fill="#F9F9F9"/>
<circle cx="223.162" cy="128.129" r="9.45733" transform="rotate(-45.2815 223.162 128.129)" fill="#F9F9F9"/>
<circle cx="245.978" cy="105.088" r="9.45733" transform="rotate(-45.2815 245.978 105.088)" fill="#F9F9F9"/>
<circle cx="268.793" cy="82.0476" r="9.45733" transform="rotate(-45.2815 268.793 82.0476)" fill="#F9F9F9"/>
<circle cx="291.611" cy="59.0066" r="9.45733" transform="rotate(-45.2815 291.611 59.0066)" fill="#F9F9F9"/>
<circle cx="86.4976" cy="312.227" r="9.45733" transform="rotate(-45.2815 86.4976 312.227)" fill="#F9F9F9"/>
<circle cx="109.312" cy="289.187" r="9.45733" transform="rotate(-45.2815 109.312 289.187)" fill="#F9F9F9"/>
<circle cx="132.128" cy="266.146" r="9.45733" transform="rotate(-45.2815 132.128 266.146)" fill="#F9F9F9"/>
<circle cx="154.943" cy="243.106" r="9.45733" transform="rotate(-45.2815 154.943 243.106)" fill="#F9F9F9"/>
<circle cx="177.757" cy="220.065" r="9.45733" transform="rotate(-45.2815 177.757 220.065)" fill="#F9F9F9"/>
<circle cx="200.574" cy="197.025" r="9.45733" transform="rotate(-45.2815 200.574 197.025)" fill="#F9F9F9"/>
<circle cx="223.388" cy="173.984" r="9.45733" transform="rotate(-45.2815 223.388 173.984)" fill="#F9F9F9"/>
<circle cx="246.203" cy="150.944" r="9.45733" transform="rotate(-45.2815 246.203 150.944)" fill="#F9F9F9"/>
<circle cx="269.019" cy="127.903" r="9.45733" transform="rotate(-45.2815 269.019 127.903)" fill="#F9F9F9"/>
<circle cx="291.834" cy="104.863" r="9.45733" transform="rotate(-45.2815 291.834 104.863)" fill="#F9F9F9"/>
<circle cx="314.648" cy="81.8215" r="9.45733" transform="rotate(-45.2815 314.648 81.8215)" fill="#F9F9F9"/>
<circle cx="109.539" cy="335.041" r="9.45733" transform="rotate(-45.2815 109.539 335.041)" fill="#F9F9F9"/>
<circle cx="132.351" cy="312.002" r="9.45733" transform="rotate(-45.2815 132.351 312.002)" fill="#F9F9F9"/>
<circle cx="155.169" cy="288.961" r="9.45733" transform="rotate(-45.2815 155.169 288.961)" fill="#F9F9F9"/>
<circle cx="177.98" cy="265.921" r="9.45733" transform="rotate(-45.2815 177.98 265.921)" fill="#F9F9F9"/>
<circle cx="200.798" cy="242.879" r="9.45733" transform="rotate(-45.2815 200.798 242.879)" fill="#F9F9F9"/>
<circle cx="223.613" cy="219.84" r="9.45733" transform="rotate(-45.2815 223.613 219.84)" fill="#F9F9F9"/>
<circle cx="246.429" cy="196.799" r="9.45733" transform="rotate(-45.2815 246.429 196.799)" fill="#F9F9F9"/>
<circle cx="269.244" cy="173.759" r="9.45733" transform="rotate(-45.2815 269.244 173.759)" fill="#F9F9F9"/>
<circle cx="292.058" cy="150.717" r="9.45733" transform="rotate(-45.2815 292.058 150.717)" fill="#F9F9F9"/>
<circle cx="314.875" cy="127.678" r="9.45733" transform="rotate(-45.2815 314.875 127.678)" fill="#F9F9F9"/>
<circle cx="337.689" cy="104.636" r="9.45733" transform="rotate(-45.2815 337.689 104.636)" fill="#F9F9F9"/>
<circle cx="132.58" cy="357.857" r="9.45733" transform="rotate(-45.2815 132.58 357.857)" fill="#F9F9F9"/>
<circle cx="155.392" cy="334.817" r="9.45733" transform="rotate(-45.2815 155.392 334.817)" fill="#F9F9F9"/>
<circle cx="178.209" cy="311.776" r="9.45733" transform="rotate(-45.2815 178.209 311.776)" fill="#F9F9F9"/>
<circle cx="201.021" cy="288.736" r="9.45733" transform="rotate(-45.2815 201.021 288.736)" fill="#F9F9F9"/>
<circle cx="223.839" cy="265.695" r="9.45733" transform="rotate(-45.2815 223.839 265.695)" fill="#F9F9F9"/>
<circle cx="246.654" cy="242.655" r="9.45733" transform="rotate(-45.2815 246.654 242.655)" fill="#F9F9F9"/>
<circle cx="269.47" cy="219.613" r="9.45733" transform="rotate(-45.2815 269.47 219.613)" fill="#F9F9F9"/>
<circle cx="292.285" cy="196.574" r="9.45733" transform="rotate(-45.2815 292.285 196.574)" fill="#F9F9F9"/>
<circle cx="315.099" cy="173.533" r="9.45733" transform="rotate(-45.2815 315.099 173.533)" fill="#F9F9F9"/>
<circle cx="337.914" cy="150.493" r="9.45733" transform="rotate(-45.2815 337.914 150.493)" fill="#F9F9F9"/>
<circle cx="360.73" cy="127.451" r="9.45733" transform="rotate(-45.2815 360.73 127.451)" fill="#F9F9F9"/>
<circle cx="155.617" cy="380.672" r="9.45733" transform="rotate(-45.2815 155.617 380.672)" fill="#F9F9F9"/>
<circle cx="178.431" cy="357.632" r="9.45733" transform="rotate(-45.2815 178.431 357.632)" fill="#F9F9F9"/>
<circle cx="201.25" cy="334.591" r="9.45733" transform="rotate(-45.2815 201.25 334.591)" fill="#F9F9F9"/>
<circle cx="224.062" cy="311.551" r="9.45733" transform="rotate(-45.2815 224.062 311.551)" fill="#F9F9F9"/>
<circle cx="246.88" cy="288.51" r="9.45733" transform="rotate(-45.2815 246.88 288.51)" fill="#F9F9F9"/>
<circle cx="269.693" cy="265.47" r="9.45733" transform="rotate(-45.2815 269.693 265.47)" fill="#F9F9F9"/>
<circle cx="292.509" cy="242.428" r="9.45733" transform="rotate(-45.2815 292.509 242.428)" fill="#F9F9F9"/>
<circle cx="315.326" cy="219.389" r="9.45733" transform="rotate(-45.2815 315.326 219.389)" fill="#F9F9F9"/>
<circle cx="338.14" cy="196.348" r="9.45733" transform="rotate(-45.2815 338.14 196.348)" fill="#F9F9F9"/>
<circle cx="360.955" cy="173.308" r="9.45733" transform="rotate(-45.2815 360.955 173.308)" fill="#F9F9F9"/>
<circle cx="383.771" cy="150.267" r="9.45733" transform="rotate(-45.2815 383.771 150.267)" fill="#F9F9F9"/>
<circle cx="178.658" cy="403.487" r="9.45733" transform="rotate(-45.2815 178.658 403.487)" fill="#F9F9F9"/>
<circle cx="201.472" cy="380.447" r="9.45733" transform="rotate(-45.2815 201.472 380.447)" fill="#F9F9F9"/>
<circle cx="224.291" cy="357.406" r="9.45733" transform="rotate(-45.2815 224.291 357.406)" fill="#F9F9F9"/>
<circle cx="247.103" cy="334.366" r="9.45733" transform="rotate(-45.2815 247.103 334.366)" fill="#F9F9F9"/>
<circle cx="269.921" cy="311.325" r="9.45733" transform="rotate(-45.2815 269.921 311.325)" fill="#F9F9F9"/>
<circle cx="292.732" cy="288.285" r="9.45733" transform="rotate(-45.2815 292.732 288.285)" fill="#F9F9F9"/>
<circle cx="315.55" cy="265.244" r="9.45733" transform="rotate(-45.2815 315.55 265.244)" fill="#F9F9F9"/>
<circle cx="338.365" cy="242.204" r="9.45733" transform="rotate(-45.2815 338.365 242.204)" fill="#F9F9F9"/>
<circle cx="361.181" cy="219.163" r="9.45733" transform="rotate(-45.2815 361.181 219.163)" fill="#F9F9F9"/>
<circle cx="383.996" cy="196.124" r="9.45733" transform="rotate(-45.2815 383.996 196.124)" fill="#F9F9F9"/>
<circle cx="406.81" cy="173.082" r="9.45733" transform="rotate(-45.2815 406.81 173.082)" fill="#F9F9F9"/>
<circle cx="201.699" cy="426.302" r="9.45733" transform="rotate(-45.2815 201.699 426.302)" fill="#F9F9F9"/>
<circle cx="224.513" cy="403.262" r="9.45733" transform="rotate(-45.2815 224.513 403.262)" fill="#F9F9F9"/>
<circle cx="247.328" cy="380.221" r="9.45733" transform="rotate(-45.2815 247.328 380.221)" fill="#F9F9F9"/>
<circle cx="270.144" cy="357.181" r="9.45733" transform="rotate(-45.2815 270.144 357.181)" fill="#F9F9F9"/>
<circle cx="292.96" cy="334.14" r="9.45733" transform="rotate(-45.2815 292.96 334.14)" fill="#F9F9F9"/>
<circle cx="315.773" cy="311.101" r="9.45733" transform="rotate(-45.2815 315.773 311.101)" fill="#F9F9F9"/>
<circle cx="338.591" cy="288.059" r="9.45733" transform="rotate(-45.2815 338.591 288.059)" fill="#F9F9F9"/>
<circle cx="361.404" cy="265.019" r="9.45733" transform="rotate(-45.2815 361.404 265.019)" fill="#F9F9F9"/>
<circle cx="384.222" cy="241.978" r="9.45733" transform="rotate(-45.2815 384.222 241.978)" fill="#F9F9F9"/>
<circle cx="407.037" cy="218.939" r="9.45733" transform="rotate(-45.2815 407.037 218.939)" fill="#F9F9F9"/>
<circle cx="429.851" cy="195.898" r="9.45733" transform="rotate(-45.2815 429.851 195.898)" fill="#F9F9F9"/>
<circle cx="224.74" cy="449.117" r="9.45733" transform="rotate(-45.2815 224.74 449.117)" fill="#F9F9F9"/>
<circle cx="247.554" cy="426.078" r="9.45733" transform="rotate(-45.2815 247.554 426.078)" fill="#F9F9F9"/>
<circle cx="270.369" cy="403.036" r="9.45733" transform="rotate(-45.2815 270.369 403.036)" fill="#F9F9F9"/>
<circle cx="293.185" cy="379.996" r="9.45733" transform="rotate(-45.2815 293.185 379.996)" fill="#F9F9F9"/>
<circle cx="316" cy="356.955" r="9.45733" transform="rotate(-45.2815 316 356.955)" fill="#F9F9F9"/>
<circle cx="338.814" cy="333.916" r="9.45733" transform="rotate(-45.2815 338.814 333.916)" fill="#F9F9F9"/>
<circle cx="361.628" cy="310.874" r="9.45733" transform="rotate(-45.2815 361.628 310.874)" fill="#F9F9F9"/>
<circle cx="384.445" cy="287.834" r="9.45733" transform="rotate(-45.2815 384.445 287.834)" fill="#F9F9F9"/>
<circle cx="407.261" cy="264.793" r="9.45733" transform="rotate(-45.2815 407.261 264.793)" fill="#F9F9F9"/>
<circle cx="430.074" cy="241.754" r="9.45733" transform="rotate(-45.2815 430.074 241.754)" fill="#F9F9F9"/>
<circle cx="452.892" cy="218.713" r="9.45733" transform="rotate(-45.2815 452.892 218.713)" fill="#F9F9F9"/>
<g filter="url(#filter0_d)">
<path d="M265.598 426.688L72.278 242.907L328.097 167.377L265.598 426.688Z" stroke="#3949F8" stroke-width="30" stroke-linecap="round" stroke-linejoin="round"/>
</g>
<defs>
<filter id="filter0_d" x="9.7793" y="87.5767" width="341.789" height="370.912" filterUnits="userSpaceOnUse" color-interpolation-filters="sRGB">
<feFlood flood-opacity="0" result="BackgroundImageFix"/>
<feColorMatrix in="SourceAlpha" type="matrix" values="0 0 0 0 0 0 0 0 0 0 0 0 0 0 0 0 0 0 127 0"/>
<feOffset dy="4"/>
<feGaussianBlur stdDeviation="2"/>
<feColorMatrix type="matrix" values="0 0 0 0 0.223529 0 0 0 0 0.286275 0 0 0 0 0.972549 0 0 0 1 0"/>
<feBlend mode="normal" in2="BackgroundImageFix" result="effect1_dropShadow"/>
<feBlend mode="normal" in="SourceGraphic" in2="effect1_dropShadow" result="shape"/>
</filter>
</defs>
</svg>
