<svg width="381" height="363" viewBox="0 0 381 363" fill="none" xmlns="http://www.w3.org/2000/svg">
<g opacity="0.2">
<rect x="0.00195312" y="360.053" width="17.0914" height="18.6452" rx="2" transform="rotate(-89.5865 0.00195312 360.053)" fill="white"/>
<rect x="0.166016" y="337.266" width="17.0914" height="18.6452" rx="2" transform="rotate(-89.5865 0.166016 337.266)" fill="white"/>
<rect x="0.330078" y="314.477" width="17.0914" height="18.6452" rx="2" transform="rotate(-89.5865 0.330078 314.477)" fill="white"/>
<rect x="0.496094" y="291.689" width="17.0914" height="18.6452" rx="2" transform="rotate(-89.5865 0.496094 291.689)" fill="white"/>
<rect x="0.660156" y="268.902" width="17.0914" height="18.6452" rx="2" transform="rotate(-89.5865 0.660156 268.902)" fill="white"/>
<rect x="0.824219" y="246.113" width="17.0914" height="18.6452" rx="2" transform="rotate(-89.5865 0.824219 246.113)" fill="white"/>
<rect x="0.986328" y="223.325" width="17.0914" height="18.6452" rx="2" transform="rotate(-89.5865 0.986328 223.325)" fill="white"/>
<rect x="1.15234" y="200.538" width="17.0914" height="18.6452" rx="2" transform="rotate(-89.5865 1.15234 200.538)" fill="white"/>
<rect x="23.9297" y="360.226" width="17.0914" height="18.6452" rx="2" transform="rotate(-89.5865 23.9297 360.226)" fill="white"/>
<rect x="24.0938" y="337.438" width="17.0914" height="18.6452" rx="2" transform="rotate(-89.5865 24.0938 337.438)" fill="white"/>
<rect x="24.2578" y="314.652" width="17.0914" height="18.6452" rx="2" transform="rotate(-89.5865 24.2578 314.652)" fill="white"/>
<rect x="24.4219" y="291.862" width="17.0914" height="18.6452" rx="2" transform="rotate(-89.5865 24.4219 291.862)" fill="white"/>
<rect x="24.5859" y="269.074" width="17.0914" height="18.6452" rx="2" transform="rotate(-89.5865 24.5859 269.074)" fill="white"/>
<rect x="24.75" y="246.287" width="17.0914" height="18.6452" rx="2" transform="rotate(-89.5865 24.75 246.287)" fill="white"/>
<rect x="24.916" y="223.498" width="17.0914" height="18.6452" rx="2" transform="rotate(-89.5865 24.916 223.498)" fill="white"/>
<rect x="25.0801" y="200.71" width="17.0914" height="18.6452" rx="2" transform="rotate(-89.5865 25.0801 200.71)" fill="white"/>
<rect x="47.8535" y="360.4" width="17.0914" height="18.6452" rx="2" transform="rotate(-89.5865 47.8535 360.4)" fill="white"/>
<rect x="48.0195" y="337.611" width="17.0914" height="18.6452" rx="2" transform="rotate(-89.5865 48.0195 337.611)" fill="white"/>
<rect x="48.1855" y="314.823" width="17.0914" height="18.6452" rx="2" transform="rotate(-89.5865 48.1855 314.823)" fill="white"/>
<rect x="48.3496" y="292.035" width="17.0914" height="18.6452" rx="2" transform="rotate(-89.5865 48.3496 292.035)" fill="white"/>
<rect x="48.5137" y="269.247" width="17.0914" height="18.6452" rx="2" transform="rotate(-89.5865 48.5137 269.247)" fill="white"/>
<rect x="48.6777" y="246.458" width="17.0914" height="18.6452" rx="2" transform="rotate(-89.5865 48.6777 246.458)" fill="white"/>
<rect x="48.8438" y="223.671" width="17.0914" height="18.6452" rx="2" transform="rotate(-89.5865 48.8438 223.671)" fill="white"/>
<rect x="49.0078" y="200.882" width="17.0914" height="18.6452" rx="2" transform="rotate(-89.5865 49.0078 200.882)" fill="white"/>
<rect x="71.7832" y="360.571" width="17.0914" height="18.6452" rx="2" transform="rotate(-89.5865 71.7832 360.571)" fill="white"/>
<rect x="71.9473" y="337.784" width="17.0914" height="18.6452" rx="2" transform="rotate(-89.5865 71.9473 337.784)" fill="white"/>
<rect x="72.1113" y="314.996" width="17.0914" height="18.6452" rx="2" transform="rotate(-89.5865 72.1113 314.996)" fill="white"/>
<rect x="72.2754" y="292.208" width="17.0914" height="18.6452" rx="2" transform="rotate(-89.5865 72.2754 292.208)" fill="white"/>
<rect x="72.4414" y="269.42" width="17.0914" height="18.6452" rx="2" transform="rotate(-89.5865 72.4414 269.42)" fill="white"/>
<rect x="72.6074" y="246.631" width="17.0914" height="18.6452" rx="2" transform="rotate(-89.5865 72.6074 246.631)" fill="white"/>
<rect x="72.7715" y="223.843" width="17.0914" height="18.6452" rx="2" transform="rotate(-89.5865 72.7715 223.843)" fill="white"/>
<rect x="72.9336" y="201.057" width="17.0914" height="18.6452" rx="2" transform="rotate(-89.5865 72.9336 201.057)" fill="white"/>
<rect x="95.7109" y="360.745" width="17.0914" height="18.6452" rx="2" transform="rotate(-89.5865 95.7109 360.745)" fill="white"/>
<rect x="95.875" y="337.957" width="17.0914" height="18.6452" rx="2" transform="rotate(-89.5865 95.875 337.957)" fill="white"/>
<rect x="96.0391" y="315.169" width="17.0914" height="18.6452" rx="2" transform="rotate(-89.5865 96.0391 315.169)" fill="white"/>
<rect x="96.207" y="292.379" width="17.0914" height="18.6452" rx="2" transform="rotate(-89.5865 96.207 292.379)" fill="white"/>
<rect x="96.3711" y="269.592" width="17.0914" height="18.6452" rx="2" transform="rotate(-89.5865 96.3711 269.592)" fill="white"/>
<rect x="96.5312" y="246.805" width="17.0914" height="18.6452" rx="2" transform="rotate(-89.5865 96.5312 246.805)" fill="white"/>
<rect x="96.6953" y="224.018" width="17.0914" height="18.6452" rx="2" transform="rotate(-89.5865 96.6953 224.018)" fill="white"/>
<rect x="96.8613" y="201.228" width="17.0914" height="18.6452" rx="2" transform="rotate(-89.5865 96.8613 201.228)" fill="white"/>
<rect x="119.639" y="360.918" width="17.0914" height="18.6452" rx="2" transform="rotate(-89.5865 119.639 360.918)" fill="white"/>
<rect x="119.805" y="338.128" width="17.0914" height="18.6452" rx="2" transform="rotate(-89.5865 119.805 338.128)" fill="white"/>
<rect x="119.967" y="315.34" width="17.0914" height="18.6452" rx="2" transform="rotate(-89.5865 119.967 315.34)" fill="white"/>
<rect x="120.131" y="292.554" width="17.0914" height="18.6452" rx="2" transform="rotate(-89.5865 120.131 292.554)" fill="white"/>
<rect x="120.295" y="269.766" width="17.0914" height="18.6452" rx="2" transform="rotate(-89.5865 120.295 269.766)" fill="white"/>
<rect x="120.461" y="246.976" width="17.0914" height="18.6452" rx="2" transform="rotate(-89.5865 120.461 246.976)" fill="white"/>
<rect x="120.625" y="224.189" width="17.0914" height="18.6452" rx="2" transform="rotate(-89.5865 120.625 224.189)" fill="white"/>
<rect x="120.789" y="201.402" width="17.0914" height="18.6452" rx="2" transform="rotate(-89.5865 120.789 201.402)" fill="white"/>
<rect x="143.564" y="361.09" width="17.0914" height="18.6452" rx="2" transform="rotate(-89.5865 143.564 361.09)" fill="white"/>
<rect x="143.729" y="338.302" width="17.0914" height="18.6452" rx="2" transform="rotate(-89.5865 143.729 338.302)" fill="white"/>
<rect x="143.895" y="315.514" width="17.0914" height="18.6452" rx="2" transform="rotate(-89.5865 143.895 315.514)" fill="white"/>
<rect x="144.059" y="292.726" width="17.0914" height="18.6452" rx="2" transform="rotate(-89.5865 144.059 292.726)" fill="white"/>
<rect x="144.225" y="269.938" width="17.0914" height="18.6452" rx="2" transform="rotate(-89.5865 144.225 269.938)" fill="white"/>
<rect x="144.387" y="247.151" width="17.0914" height="18.6452" rx="2" transform="rotate(-89.5865 144.387 247.151)" fill="white"/>
<rect x="144.553" y="224.362" width="17.0914" height="18.6452" rx="2" transform="rotate(-89.5865 144.553 224.362)" fill="white"/>
<rect x="144.717" y="201.574" width="17.0914" height="18.6452" rx="2" transform="rotate(-89.5865 144.717 201.574)" fill="white"/>
<rect x="167.492" y="361.262" width="17.0914" height="18.6452" rx="2" transform="rotate(-89.5865 167.492 361.262)" fill="white"/>
<rect x="167.658" y="338.475" width="17.0914" height="18.6452" rx="2" transform="rotate(-89.5865 167.658 338.475)" fill="white"/>
<rect x="167.822" y="315.686" width="17.0914" height="18.6452" rx="2" transform="rotate(-89.5865 167.822 315.686)" fill="white"/>
<rect x="167.986" y="292.898" width="17.0914" height="18.6452" rx="2" transform="rotate(-89.5865 167.986 292.898)" fill="white"/>
<rect x="168.152" y="270.111" width="17.0914" height="18.6452" rx="2" transform="rotate(-89.5865 168.152 270.111)" fill="white"/>
<rect x="168.316" y="247.323" width="17.0914" height="18.6452" rx="2" transform="rotate(-89.5865 168.316 247.323)" fill="white"/>
<rect x="168.479" y="224.534" width="17.0914" height="18.6452" rx="2" transform="rotate(-89.5865 168.479 224.534)" fill="white"/>
<rect x="168.645" y="201.746" width="17.0914" height="18.6452" rx="2" transform="rotate(-89.5865 168.645 201.746)" fill="white"/>
</g>
<g opacity="0.2">
<rect x="1.32617" y="176.607" width="17.0914" height="18.6452" rx="2" transform="rotate(-89.5865 1.32617 176.607)" fill="white"/>
<rect x="1.49219" y="153.82" width="17.0914" height="18.6452" rx="2" transform="rotate(-89.5865 1.49219 153.82)" fill="white"/>
<rect x="1.65625" y="131.031" width="17.0914" height="18.6452" rx="2" transform="rotate(-89.5865 1.65625 131.031)" fill="white"/>
<rect x="1.82227" y="108.244" width="17.0914" height="18.6452" rx="2" transform="rotate(-89.5865 1.82227 108.244)" fill="white"/>
<rect x="1.98633" y="85.4561" width="17.0914" height="18.6452" rx="2" transform="rotate(-89.5865 1.98633 85.4561)" fill="white"/>
<rect x="2.15039" y="62.667" width="17.0914" height="18.6452" rx="2" transform="rotate(-89.5865 2.15039 62.667)" fill="white"/>
<rect x="2.3125" y="39.8794" width="17.0914" height="18.6452" rx="2" transform="rotate(-89.5865 2.3125 39.8794)" fill="white"/>
<rect x="2.47852" y="17.0918" width="17.0914" height="18.6452" rx="2" transform="rotate(-89.5865 2.47852 17.0918)" fill="white"/>
<rect x="25.2559" y="176.78" width="17.0914" height="18.6452" rx="2" transform="rotate(-89.5865 25.2559 176.78)" fill="white"/>
<rect x="25.4199" y="153.992" width="17.0914" height="18.6452" rx="2" transform="rotate(-89.5865 25.4199 153.992)" fill="white"/>
<rect x="25.584" y="131.206" width="17.0914" height="18.6452" rx="2" transform="rotate(-89.5865 25.584 131.206)" fill="white"/>
<rect x="25.748" y="108.416" width="17.0914" height="18.6452" rx="2" transform="rotate(-89.5865 25.748 108.416)" fill="white"/>
<rect x="25.9121" y="85.6279" width="17.0914" height="18.6452" rx="2" transform="rotate(-89.5865 25.9121 85.6279)" fill="white"/>
<rect x="26.0762" y="62.8408" width="17.0914" height="18.6452" rx="2" transform="rotate(-89.5865 26.0762 62.8408)" fill="white"/>
<rect x="26.2422" y="40.0518" width="17.0914" height="18.6452" rx="2" transform="rotate(-89.5865 26.2422 40.0518)" fill="white"/>
<rect x="26.4062" y="17.2642" width="17.0914" height="18.6452" rx="2" transform="rotate(-89.5865 26.4062 17.2642)" fill="white"/>
<rect x="49.1797" y="176.954" width="17.0914" height="18.6452" rx="2" transform="rotate(-89.5865 49.1797 176.954)" fill="white"/>
<rect x="49.3457" y="154.166" width="17.0914" height="18.6452" rx="2" transform="rotate(-89.5865 49.3457 154.166)" fill="white"/>
<rect x="49.5117" y="131.377" width="17.0914" height="18.6452" rx="2" transform="rotate(-89.5865 49.5117 131.377)" fill="white"/>
<rect x="49.6758" y="108.589" width="17.0914" height="18.6452" rx="2" transform="rotate(-89.5865 49.6758 108.589)" fill="white"/>
<rect x="49.8398" y="85.8013" width="17.0914" height="18.6452" rx="2" transform="rotate(-89.5865 49.8398 85.8013)" fill="white"/>
<rect x="50.0039" y="63.0127" width="17.0914" height="18.6452" rx="2" transform="rotate(-89.5865 50.0039 63.0127)" fill="white"/>
<rect x="50.1699" y="40.2251" width="17.0914" height="18.6452" rx="2" transform="rotate(-89.5865 50.1699 40.2251)" fill="white"/>
<rect x="50.334" y="17.436" width="17.0914" height="18.6452" rx="2" transform="rotate(-89.5865 50.334 17.436)" fill="white"/>
<rect x="73.1094" y="177.125" width="17.0914" height="18.6452" rx="2" transform="rotate(-89.5865 73.1094 177.125)" fill="white"/>
<rect x="73.2734" y="154.338" width="17.0914" height="18.6452" rx="2" transform="rotate(-89.5865 73.2734 154.338)" fill="white"/>
<rect x="73.4375" y="131.55" width="17.0914" height="18.6452" rx="2" transform="rotate(-89.5865 73.4375 131.55)" fill="white"/>
<rect x="73.6016" y="108.762" width="17.0914" height="18.6452" rx="2" transform="rotate(-89.5865 73.6016 108.762)" fill="white"/>
<rect x="73.7676" y="85.9741" width="17.0914" height="18.6452" rx="2" transform="rotate(-89.5865 73.7676 85.9741)" fill="white"/>
<rect x="73.9336" y="63.1851" width="17.0914" height="18.6452" rx="2" transform="rotate(-89.5865 73.9336 63.1851)" fill="white"/>
<rect x="74.0977" y="40.3975" width="17.0914" height="18.6452" rx="2" transform="rotate(-89.5865 74.0977 40.3975)" fill="white"/>
<rect x="74.2598" y="17.6113" width="17.0914" height="18.6452" rx="2" transform="rotate(-89.5865 74.2598 17.6113)" fill="white"/>
<rect x="97.0371" y="177.299" width="17.0914" height="18.6452" rx="2" transform="rotate(-89.5865 97.0371 177.299)" fill="white"/>
<rect x="97.2012" y="154.511" width="17.0914" height="18.6452" rx="2" transform="rotate(-89.5865 97.2012 154.511)" fill="white"/>
<rect x="97.3652" y="131.724" width="17.0914" height="18.6452" rx="2" transform="rotate(-89.5865 97.3652 131.724)" fill="white"/>
<rect x="97.5332" y="108.934" width="17.0914" height="18.6452" rx="2" transform="rotate(-89.5865 97.5332 108.934)" fill="white"/>
<rect x="97.6973" y="86.146" width="17.0914" height="18.6452" rx="2" transform="rotate(-89.5865 97.6973 86.146)" fill="white"/>
<rect x="97.8574" y="63.3594" width="17.0914" height="18.6452" rx="2" transform="rotate(-89.5865 97.8574 63.3594)" fill="white"/>
<rect x="98.0215" y="40.5718" width="17.0914" height="18.6452" rx="2" transform="rotate(-89.5865 98.0215 40.5718)" fill="white"/>
<rect x="98.1875" y="17.7822" width="17.0914" height="18.6452" rx="2" transform="rotate(-89.5865 98.1875 17.7822)" fill="white"/>
<rect x="120.965" y="177.472" width="17.0914" height="18.6452" rx="2" transform="rotate(-89.5865 120.965 177.472)" fill="white"/>
<rect x="121.131" y="154.682" width="17.0914" height="18.6452" rx="2" transform="rotate(-89.5865 121.131 154.682)" fill="white"/>
<rect x="121.293" y="131.895" width="17.0914" height="18.6452" rx="2" transform="rotate(-89.5865 121.293 131.895)" fill="white"/>
<rect x="121.457" y="109.108" width="17.0914" height="18.6452" rx="2" transform="rotate(-89.5865 121.457 109.108)" fill="white"/>
<rect x="121.621" y="86.3193" width="17.0914" height="18.6452" rx="2" transform="rotate(-89.5865 121.621 86.3193)" fill="white"/>
<rect x="121.787" y="63.5308" width="17.0914" height="18.6452" rx="2" transform="rotate(-89.5865 121.787 63.5308)" fill="white"/>
<rect x="121.951" y="40.7432" width="17.0914" height="18.6452" rx="2" transform="rotate(-89.5865 121.951 40.7432)" fill="white"/>
<rect x="122.115" y="17.9561" width="17.0914" height="18.6452" rx="2" transform="rotate(-89.5865 122.115 17.9561)" fill="white"/>
<rect x="144.891" y="177.644" width="17.0914" height="18.6452" rx="2" transform="rotate(-89.5865 144.891 177.644)" fill="white"/>
<rect x="145.055" y="154.857" width="17.0914" height="18.6452" rx="2" transform="rotate(-89.5865 145.055 154.857)" fill="white"/>
<rect x="145.221" y="132.068" width="17.0914" height="18.6452" rx="2" transform="rotate(-89.5865 145.221 132.068)" fill="white"/>
<rect x="145.385" y="109.28" width="17.0914" height="18.6452" rx="2" transform="rotate(-89.5865 145.385 109.28)" fill="white"/>
<rect x="145.551" y="86.4917" width="17.0914" height="18.6452" rx="2" transform="rotate(-89.5865 145.551 86.4917)" fill="white"/>
<rect x="145.713" y="63.7051" width="17.0914" height="18.6452" rx="2" transform="rotate(-89.5865 145.713 63.7051)" fill="white"/>
<rect x="145.879" y="40.916" width="17.0914" height="18.6452" rx="2" transform="rotate(-89.5865 145.879 40.916)" fill="white"/>
<rect x="146.043" y="18.1289" width="17.0914" height="18.6452" rx="2" transform="rotate(-89.5865 146.043 18.1289)" fill="white"/>
<rect x="168.818" y="177.816" width="17.0914" height="18.6452" rx="2" transform="rotate(-89.5865 168.818 177.816)" fill="white"/>
<rect x="168.984" y="155.029" width="17.0914" height="18.6452" rx="2" transform="rotate(-89.5865 168.984 155.029)" fill="white"/>
<rect x="169.148" y="132.24" width="17.0914" height="18.6452" rx="2" transform="rotate(-89.5865 169.148 132.24)" fill="white"/>
<rect x="169.312" y="109.453" width="17.0914" height="18.6452" rx="2" transform="rotate(-89.5865 169.312 109.453)" fill="white"/>
<rect x="169.479" y="86.665" width="17.0914" height="18.6452" rx="2" transform="rotate(-89.5865 169.479 86.665)" fill="white"/>
<rect x="169.643" y="63.877" width="17.0914" height="18.6452" rx="2" transform="rotate(-89.5865 169.643 63.877)" fill="white"/>
<rect x="169.805" y="41.0884" width="17.0914" height="18.6452" rx="2" transform="rotate(-89.5865 169.805 41.0884)" fill="white"/>
<rect x="169.971" y="18.2998" width="17.0914" height="18.6452" rx="2" transform="rotate(-89.5865 169.971 18.2998)" fill="white"/>
</g>
<g opacity="0.2">
<rect x="191.443" y="361.486" width="17.0914" height="18.6452" rx="2" transform="rotate(-89.5865 191.443 361.486)" fill="white"/>
<rect x="191.611" y="338.696" width="17.0914" height="18.6452" rx="2" transform="rotate(-89.5865 191.611 338.696)" fill="white"/>
<rect x="191.775" y="315.909" width="17.0914" height="18.6452" rx="2" transform="rotate(-89.5865 191.775 315.909)" fill="white"/>
<rect x="191.939" y="293.121" width="17.0914" height="18.6452" rx="2" transform="rotate(-89.5865 191.939 293.121)" fill="white"/>
<rect x="192.104" y="270.333" width="17.0914" height="18.6452" rx="2" transform="rotate(-89.5865 192.104 270.333)" fill="white"/>
<rect x="192.27" y="247.544" width="17.0914" height="18.6452" rx="2" transform="rotate(-89.5865 192.27 247.544)" fill="white"/>
<rect x="192.43" y="224.757" width="17.0914" height="18.6452" rx="2" transform="rotate(-89.5865 192.43 224.757)" fill="white"/>
<rect x="192.596" y="201.969" width="17.0914" height="18.6452" rx="2" transform="rotate(-89.5865 192.596 201.969)" fill="white"/>
<rect x="215.373" y="361.657" width="17.0914" height="18.6452" rx="2" transform="rotate(-89.5865 215.373 361.657)" fill="white"/>
<rect x="215.537" y="338.869" width="17.0914" height="18.6452" rx="2" transform="rotate(-89.5865 215.537 338.869)" fill="white"/>
<rect x="215.701" y="316.083" width="17.0914" height="18.6452" rx="2" transform="rotate(-89.5865 215.701 316.083)" fill="white"/>
<rect x="215.865" y="293.293" width="17.0914" height="18.6452" rx="2" transform="rotate(-89.5865 215.865 293.293)" fill="white"/>
<rect x="216.029" y="270.505" width="17.0914" height="18.6452" rx="2" transform="rotate(-89.5865 216.029 270.505)" fill="white"/>
<rect x="216.193" y="247.718" width="17.0914" height="18.6452" rx="2" transform="rotate(-89.5865 216.193 247.718)" fill="white"/>
<rect x="216.359" y="224.929" width="17.0914" height="18.6452" rx="2" transform="rotate(-89.5865 216.359 224.929)" fill="white"/>
<rect x="216.523" y="202.142" width="17.0914" height="18.6452" rx="2" transform="rotate(-89.5865 216.523 202.142)" fill="white"/>
<rect x="239.299" y="361.831" width="17.0914" height="18.6452" rx="2" transform="rotate(-89.5865 239.299 361.831)" fill="white"/>
<rect x="239.463" y="339.043" width="17.0914" height="18.6452" rx="2" transform="rotate(-89.5865 239.463 339.043)" fill="white"/>
<rect x="239.629" y="316.254" width="17.0914" height="18.6452" rx="2" transform="rotate(-89.5865 239.629 316.254)" fill="white"/>
<rect x="239.793" y="293.467" width="17.0914" height="18.6452" rx="2" transform="rotate(-89.5865 239.793 293.467)" fill="white"/>
<rect x="239.957" y="270.679" width="17.0914" height="18.6452" rx="2" transform="rotate(-89.5865 239.957 270.679)" fill="white"/>
<rect x="240.121" y="247.89" width="17.0914" height="18.6452" rx="2" transform="rotate(-89.5865 240.121 247.89)" fill="white"/>
<rect x="240.287" y="225.103" width="17.0914" height="18.6452" rx="2" transform="rotate(-89.5865 240.287 225.103)" fill="white"/>
<rect x="240.451" y="202.313" width="17.0914" height="18.6452" rx="2" transform="rotate(-89.5865 240.451 202.313)" fill="white"/>
<rect x="263.227" y="362.002" width="17.0914" height="18.6452" rx="2" transform="rotate(-89.5865 263.227 362.002)" fill="white"/>
<rect x="263.393" y="339.214" width="17.0914" height="18.6452" rx="2" transform="rotate(-89.5865 263.393 339.214)" fill="white"/>
<rect x="263.555" y="316.427" width="17.0914" height="18.6452" rx="2" transform="rotate(-89.5865 263.555 316.427)" fill="white"/>
<rect x="263.719" y="293.64" width="17.0914" height="18.6452" rx="2" transform="rotate(-89.5865 263.719 293.64)" fill="white"/>
<rect x="263.885" y="270.851" width="17.0914" height="18.6452" rx="2" transform="rotate(-89.5865 263.885 270.851)" fill="white"/>
<rect x="264.051" y="248.062" width="17.0914" height="18.6452" rx="2" transform="rotate(-89.5865 264.051 248.062)" fill="white"/>
<rect x="264.215" y="225.275" width="17.0914" height="18.6452" rx="2" transform="rotate(-89.5865 264.215 225.275)" fill="white"/>
<rect x="264.377" y="202.488" width="17.0914" height="18.6452" rx="2" transform="rotate(-89.5865 264.377 202.488)" fill="white"/>
<rect x="287.154" y="362.176" width="17.0914" height="18.6452" rx="2" transform="rotate(-89.5865 287.154 362.176)" fill="white"/>
<rect x="287.318" y="339.388" width="17.0914" height="18.6452" rx="2" transform="rotate(-89.5865 287.318 339.388)" fill="white"/>
<rect x="287.482" y="316.601" width="17.0914" height="18.6452" rx="2" transform="rotate(-89.5865 287.482 316.601)" fill="white"/>
<rect x="287.65" y="293.811" width="17.0914" height="18.6452" rx="2" transform="rotate(-89.5865 287.65 293.811)" fill="white"/>
<rect x="287.814" y="271.023" width="17.0914" height="18.6452" rx="2" transform="rotate(-89.5865 287.814 271.023)" fill="white"/>
<rect x="287.975" y="248.237" width="17.0914" height="18.6452" rx="2" transform="rotate(-89.5865 287.975 248.237)" fill="white"/>
<rect x="288.141" y="225.448" width="17.0914" height="18.6452" rx="2" transform="rotate(-89.5865 288.141 225.448)" fill="white"/>
<rect x="288.305" y="202.659" width="17.0914" height="18.6452" rx="2" transform="rotate(-89.5865 288.305 202.659)" fill="white"/>
<rect x="311.082" y="362.349" width="17.0914" height="18.6452" rx="2" transform="rotate(-89.5865 311.082 362.349)" fill="white"/>
<rect x="311.248" y="339.56" width="17.0914" height="18.6452" rx="2" transform="rotate(-89.5865 311.248 339.56)" fill="white"/>
<rect x="311.41" y="316.772" width="17.0914" height="18.6452" rx="2" transform="rotate(-89.5865 311.41 316.772)" fill="white"/>
<rect x="311.574" y="293.985" width="17.0914" height="18.6452" rx="2" transform="rotate(-89.5865 311.574 293.985)" fill="white"/>
<rect x="311.738" y="271.196" width="17.0914" height="18.6452" rx="2" transform="rotate(-89.5865 311.738 271.196)" fill="white"/>
<rect x="311.904" y="248.408" width="17.0914" height="18.6452" rx="2" transform="rotate(-89.5865 311.904 248.408)" fill="white"/>
<rect x="312.068" y="225.62" width="17.0914" height="18.6452" rx="2" transform="rotate(-89.5865 312.068 225.62)" fill="white"/>
<rect x="312.232" y="202.833" width="17.0914" height="18.6452" rx="2" transform="rotate(-89.5865 312.232 202.833)" fill="white"/>
<rect x="335.008" y="362.521" width="17.0914" height="18.6452" rx="2" transform="rotate(-89.5865 335.008 362.521)" fill="white"/>
<rect x="335.172" y="339.734" width="17.0914" height="18.6452" rx="2" transform="rotate(-89.5865 335.172 339.734)" fill="white"/>
<rect x="335.338" y="316.945" width="17.0914" height="18.6452" rx="2" transform="rotate(-89.5865 335.338 316.945)" fill="white"/>
<rect x="335.502" y="294.157" width="17.0914" height="18.6452" rx="2" transform="rotate(-89.5865 335.502 294.157)" fill="white"/>
<rect x="335.668" y="271.369" width="17.0914" height="18.6452" rx="2" transform="rotate(-89.5865 335.668 271.369)" fill="white"/>
<rect x="335.832" y="248.581" width="17.0914" height="18.6452" rx="2" transform="rotate(-89.5865 335.832 248.581)" fill="white"/>
<rect x="335.996" y="225.793" width="17.0914" height="18.6452" rx="2" transform="rotate(-89.5865 335.996 225.793)" fill="white"/>
<rect x="336.16" y="203.006" width="17.0914" height="18.6452" rx="2" transform="rotate(-89.5865 336.16 203.006)" fill="white"/>
<rect x="358.936" y="362.694" width="17.0914" height="18.6452" rx="2" transform="rotate(-89.5865 358.936 362.694)" fill="white"/>
<rect x="359.102" y="339.906" width="17.0914" height="18.6452" rx="2" transform="rotate(-89.5865 359.102 339.906)" fill="white"/>
<rect x="359.266" y="317.118" width="17.0914" height="18.6452" rx="2" transform="rotate(-89.5865 359.266 317.118)" fill="white"/>
<rect x="359.43" y="294.33" width="17.0914" height="18.6452" rx="2" transform="rotate(-89.5865 359.43 294.33)" fill="white"/>
<rect x="359.596" y="271.542" width="17.0914" height="18.6452" rx="2" transform="rotate(-89.5865 359.596 271.542)" fill="white"/>
<rect x="359.76" y="248.754" width="17.0914" height="18.6452" rx="2" transform="rotate(-89.5865 359.76 248.754)" fill="white"/>
<rect x="359.924" y="225.964" width="17.0914" height="18.6452" rx="2" transform="rotate(-89.5865 359.924 225.964)" fill="white"/>
<rect x="360.088" y="203.177" width="17.0914" height="18.6452" rx="2" transform="rotate(-89.5865 360.088 203.177)" fill="white"/>
</g>
<g opacity="0.2">
<rect x="192.766" y="178.041" width="17.0914" height="18.6452" rx="2" transform="rotate(-89.5865 192.766 178.041)" fill="white"/>
<rect x="192.932" y="155.254" width="17.0914" height="18.6452" rx="2" transform="rotate(-89.5865 192.932 155.254)" fill="white"/>
<rect x="193.096" y="132.465" width="17.0914" height="18.6452" rx="2" transform="rotate(-89.5865 193.096 132.465)" fill="white"/>
<rect x="193.262" y="109.678" width="17.0914" height="18.6452" rx="2" transform="rotate(-89.5865 193.262 109.678)" fill="white"/>
<rect x="193.426" y="86.8901" width="17.0914" height="18.6452" rx="2" transform="rotate(-89.5865 193.426 86.8901)" fill="white"/>
<rect x="193.59" y="64.1011" width="17.0914" height="18.6452" rx="2" transform="rotate(-89.5865 193.59 64.1011)" fill="white"/>
<rect x="193.752" y="41.3135" width="17.0914" height="18.6452" rx="2" transform="rotate(-89.5865 193.752 41.3135)" fill="white"/>
<rect x="193.918" y="18.5259" width="17.0914" height="18.6452" rx="2" transform="rotate(-89.5865 193.918 18.5259)" fill="white"/>
<rect x="216.695" y="178.214" width="17.0914" height="18.6452" rx="2" transform="rotate(-89.5865 216.695 178.214)" fill="white"/>
<rect x="216.859" y="155.426" width="17.0914" height="18.6452" rx="2" transform="rotate(-89.5865 216.859 155.426)" fill="white"/>
<rect x="217.023" y="132.64" width="17.0914" height="18.6452" rx="2" transform="rotate(-89.5865 217.023 132.64)" fill="white"/>
<rect x="217.188" y="109.85" width="17.0914" height="18.6452" rx="2" transform="rotate(-89.5865 217.188 109.85)" fill="white"/>
<rect x="217.352" y="87.062" width="17.0914" height="18.6452" rx="2" transform="rotate(-89.5865 217.352 87.062)" fill="white"/>
<rect x="217.516" y="64.2749" width="17.0914" height="18.6452" rx="2" transform="rotate(-89.5865 217.516 64.2749)" fill="white"/>
<rect x="217.682" y="41.4858" width="17.0914" height="18.6452" rx="2" transform="rotate(-89.5865 217.682 41.4858)" fill="white"/>
<rect x="217.846" y="18.6982" width="17.0914" height="18.6452" rx="2" transform="rotate(-89.5865 217.846 18.6982)" fill="white"/>
<rect x="240.619" y="178.388" width="17.0914" height="18.6452" rx="2" transform="rotate(-89.5865 240.619 178.388)" fill="white"/>
<rect x="240.785" y="155.6" width="17.0914" height="18.6452" rx="2" transform="rotate(-89.5865 240.785 155.6)" fill="white"/>
<rect x="240.951" y="132.811" width="17.0914" height="18.6452" rx="2" transform="rotate(-89.5865 240.951 132.811)" fill="white"/>
<rect x="241.115" y="110.023" width="17.0914" height="18.6452" rx="2" transform="rotate(-89.5865 241.115 110.023)" fill="white"/>
<rect x="241.279" y="87.2354" width="17.0914" height="18.6452" rx="2" transform="rotate(-89.5865 241.279 87.2354)" fill="white"/>
<rect x="241.443" y="64.4468" width="17.0914" height="18.6452" rx="2" transform="rotate(-89.5865 241.443 64.4468)" fill="white"/>
<rect x="241.609" y="41.6592" width="17.0914" height="18.6452" rx="2" transform="rotate(-89.5865 241.609 41.6592)" fill="white"/>
<rect x="241.773" y="18.8701" width="17.0914" height="18.6452" rx="2" transform="rotate(-89.5865 241.773 18.8701)" fill="white"/>
<rect x="264.549" y="178.56" width="17.0914" height="18.6452" rx="2" transform="rotate(-89.5865 264.549 178.56)" fill="white"/>
<rect x="264.713" y="155.772" width="17.0914" height="18.6452" rx="2" transform="rotate(-89.5865 264.713 155.772)" fill="white"/>
<rect x="264.877" y="132.984" width="17.0914" height="18.6452" rx="2" transform="rotate(-89.5865 264.877 132.984)" fill="white"/>
<rect x="265.041" y="110.196" width="17.0914" height="18.6452" rx="2" transform="rotate(-89.5865 265.041 110.196)" fill="white"/>
<rect x="265.207" y="87.4082" width="17.0914" height="18.6452" rx="2" transform="rotate(-89.5865 265.207 87.4082)" fill="white"/>
<rect x="265.373" y="64.6191" width="17.0914" height="18.6452" rx="2" transform="rotate(-89.5865 265.373 64.6191)" fill="white"/>
<rect x="265.537" y="41.8315" width="17.0914" height="18.6452" rx="2" transform="rotate(-89.5865 265.537 41.8315)" fill="white"/>
<rect x="265.699" y="19.0454" width="17.0914" height="18.6452" rx="2" transform="rotate(-89.5865 265.699 19.0454)" fill="white"/>
<rect x="288.477" y="178.733" width="17.0914" height="18.6452" rx="2" transform="rotate(-89.5865 288.477 178.733)" fill="white"/>
<rect x="288.641" y="155.945" width="17.0914" height="18.6452" rx="2" transform="rotate(-89.5865 288.641 155.945)" fill="white"/>
<rect x="288.805" y="133.158" width="17.0914" height="18.6452" rx="2" transform="rotate(-89.5865 288.805 133.158)" fill="white"/>
<rect x="288.973" y="110.368" width="17.0914" height="18.6452" rx="2" transform="rotate(-89.5865 288.973 110.368)" fill="white"/>
<rect x="289.137" y="87.5801" width="17.0914" height="18.6452" rx="2" transform="rotate(-89.5865 289.137 87.5801)" fill="white"/>
<rect x="289.297" y="64.7935" width="17.0914" height="18.6452" rx="2" transform="rotate(-89.5865 289.297 64.7935)" fill="white"/>
<rect x="289.461" y="42.0059" width="17.0914" height="18.6452" rx="2" transform="rotate(-89.5865 289.461 42.0059)" fill="white"/>
<rect x="289.627" y="19.2163" width="17.0914" height="18.6452" rx="2" transform="rotate(-89.5865 289.627 19.2163)" fill="white"/>
<rect x="312.404" y="178.906" width="17.0914" height="18.6452" rx="2" transform="rotate(-89.5865 312.404 178.906)" fill="white"/>
<rect x="312.57" y="156.116" width="17.0914" height="18.6452" rx="2" transform="rotate(-89.5865 312.57 156.116)" fill="white"/>
<rect x="312.732" y="133.329" width="17.0914" height="18.6452" rx="2" transform="rotate(-89.5865 312.732 133.329)" fill="white"/>
<rect x="312.896" y="110.542" width="17.0914" height="18.6452" rx="2" transform="rotate(-89.5865 312.896 110.542)" fill="white"/>
<rect x="313.061" y="87.7534" width="17.0914" height="18.6452" rx="2" transform="rotate(-89.5865 313.061 87.7534)" fill="white"/>
<rect x="313.227" y="64.9644" width="17.0914" height="18.6452" rx="2" transform="rotate(-89.5865 313.227 64.9644)" fill="white"/>
<rect x="313.391" y="42.1772" width="17.0914" height="18.6452" rx="2" transform="rotate(-89.5865 313.391 42.1772)" fill="white"/>
<rect x="313.555" y="19.3901" width="17.0914" height="18.6452" rx="2" transform="rotate(-89.5865 313.555 19.3901)" fill="white"/>
<rect x="336.33" y="179.078" width="17.0914" height="18.6452" rx="2" transform="rotate(-89.5865 336.33 179.078)" fill="white"/>
<rect x="336.494" y="156.291" width="17.0914" height="18.6452" rx="2" transform="rotate(-89.5865 336.494 156.291)" fill="white"/>
<rect x="336.66" y="133.502" width="17.0914" height="18.6452" rx="2" transform="rotate(-89.5865 336.66 133.502)" fill="white"/>
<rect x="336.824" y="110.714" width="17.0914" height="18.6452" rx="2" transform="rotate(-89.5865 336.824 110.714)" fill="white"/>
<rect x="336.99" y="87.9258" width="17.0914" height="18.6452" rx="2" transform="rotate(-89.5865 336.99 87.9258)" fill="white"/>
<rect x="337.152" y="65.1392" width="17.0914" height="18.6452" rx="2" transform="rotate(-89.5865 337.152 65.1392)" fill="white"/>
<rect x="337.318" y="42.3501" width="17.0914" height="18.6452" rx="2" transform="rotate(-89.5865 337.318 42.3501)" fill="white"/>
<rect x="337.482" y="19.5625" width="17.0914" height="18.6452" rx="2" transform="rotate(-89.5865 337.482 19.5625)" fill="white"/>
<rect x="360.258" y="179.25" width="17.0914" height="18.6452" rx="2" transform="rotate(-89.5865 360.258 179.25)" fill="white"/>
<rect x="360.424" y="156.463" width="17.0914" height="18.6452" rx="2" transform="rotate(-89.5865 360.424 156.463)" fill="white"/>
<rect x="360.588" y="133.674" width="17.0914" height="18.6452" rx="2" transform="rotate(-89.5865 360.588 133.674)" fill="white"/>
<rect x="360.752" y="110.886" width="17.0914" height="18.6452" rx="2" transform="rotate(-89.5865 360.752 110.886)" fill="white"/>
<rect x="360.918" y="88.0991" width="17.0914" height="18.6452" rx="2" transform="rotate(-89.5865 360.918 88.0991)" fill="white"/>
<rect x="361.082" y="65.311" width="17.0914" height="18.6452" rx="2" transform="rotate(-89.5865 361.082 65.311)" fill="white"/>
<rect x="361.244" y="42.5225" width="17.0914" height="18.6452" rx="2" transform="rotate(-89.5865 361.244 42.5225)" fill="white"/>
<rect x="361.41" y="19.7339" width="17.0914" height="18.6452" rx="2" transform="rotate(-89.5865 361.41 19.7339)" fill="white"/>
</g>
</svg>
