<svg width="284" height="284" viewBox="0 0 284 284" fill="none" xmlns="http://www.w3.org/2000/svg">
<path d="M269.3 144.4L269.3 143.8L102.6 143.8C101.4 149.2 96.5998 153.2 90.7998 153.2L68.5998 153.2C61.2998 153.2 56.6998 148.9 56.6998 141.8C56.6998 134.7 61.2998 130.4 68.5998 130.4L90.7998 130.4C96.5998 130.4 101.4 134.4 102.6 139.8L269.3 139.8L269.3 139.2C239.9 135.6 133.1 119 79.6998 69L79.5998 69L39.7998 83.5C49.3998 92.9 58.3998 103.8 58.3998 103.8L51.0998 108L20.5998 90.3L14.0998 106.3L25.7998 122.7L16.3998 128.1L16.3998 141.8L16.3998 155.5L25.7998 161L14.0998 177.4L20.5998 193.4L51.0998 175.7L58.3998 179.9C58.3998 179.9 49.3998 190.8 39.7998 200.2L79.5998 214.7L79.6998 214.7C133.1 164.6 240 148 269.3 144.4Z" fill="white"/>
<circle cx="244.5" cy="101.5" r="20" stroke="white" stroke-width="3"/>
<path d="M238.46 91.36H246.2C248.48 91.36 250.18 91.89 251.3 92.95C252.44 94.01 253.01 95.62 253.01 97.78C253.01 100.82 251.82 102.82 249.44 103.78L253.1 112H249.95L246.62 104.38H241.34V112H238.46V91.36ZM246.23 101.89C247.49 101.89 248.44 101.55 249.08 100.87C249.74 100.17 250.07 99.16 250.07 97.84C250.07 96.54 249.74 95.55 249.08 94.87C248.44 94.19 247.48 93.85 246.2 93.85H241.34V101.89H246.23Z" fill="white"/>
</svg>
