<svg width="84" height="52" viewBox="0 0 84 52" fill="none" xmlns="http://www.w3.org/2000/svg">
<path d="M14.13 9.5H2.475V15.26H13.995C17.01 15.26 18.9 17.15 18.9 19.85C18.9 22.55 17.01 24.485 13.995 24.485H2.475V41H8.46V30.2H14.13C21.15 30.2 25.065 25.61 25.065 19.85C25.065 14.09 21.15 9.5 14.13 9.5Z" fill="white"/>
<path d="M29.475 41H35.46V32.54H29.475V41ZM35.46 22.415V9.5H29.475V28.13H48.15V41H54.135V22.415H35.46ZM48.15 9.5V17.96H54.135V9.5H48.15Z" fill="white"/>
<path d="M65.775 35.285L82.02 15.215H74.595L58.35 35.285V41H82.38V35.285H65.775ZM72.03 9.5H59.7V15.215H67.44L72.03 9.5Z" fill="white"/>
</svg>
