<svg width="247" height="223" viewBox="0 0 247 223" fill="none" xmlns="http://www.w3.org/2000/svg">
<circle cx="6.78695" cy="6.78695" r="6.78695" fill="#F9F9F9"/>
<circle cx="30.0565" cy="6.78695" r="6.78695" fill="#F9F9F9"/>
<circle cx="53.326" cy="6.78695" r="6.78695" fill="#F9F9F9"/>
<circle cx="76.5955" cy="6.78695" r="6.78695" fill="#F9F9F9"/>
<circle cx="99.8651" cy="6.78695" r="6.78695" fill="#F9F9F9"/>
<circle cx="123.135" cy="6.78695" r="6.78695" fill="#F9F9F9"/>
<circle cx="146.404" cy="6.78695" r="6.78695" fill="#F9F9F9"/>
<circle cx="169.674" cy="6.78695" r="6.78695" fill="#F9F9F9"/>
<circle cx="192.943" cy="6.78695" r="6.78695" fill="#F9F9F9"/>
<circle cx="216.213" cy="6.78695" r="6.78695" fill="#F9F9F9"/>
<circle cx="239.484" cy="6.78695" r="6.78695" fill="#F9F9F9"/>
<circle cx="6.78695" cy="30.0565" r="6.78695" fill="#F9F9F9"/>
<circle cx="30.0565" cy="30.0565" r="6.78695" fill="#F9F9F9"/>
<circle cx="53.326" cy="30.0565" r="6.78695" fill="#F9F9F9"/>
<circle cx="76.5955" cy="30.0565" r="6.78695" fill="#F9F9F9"/>
<circle cx="99.8651" cy="30.0565" r="6.78695" fill="#F9F9F9"/>
<circle cx="123.135" cy="30.0565" r="6.78695" fill="#F9F9F9"/>
<circle cx="146.404" cy="30.0565" r="6.78695" fill="#F9F9F9"/>
<circle cx="169.674" cy="30.0565" r="6.78695" fill="#F9F9F9"/>
<circle cx="192.943" cy="30.0565" r="6.78695" fill="#F9F9F9"/>
<circle cx="216.213" cy="30.0565" r="6.78695" fill="#F9F9F9"/>
<circle cx="239.484" cy="30.0565" r="6.78695" fill="#F9F9F9"/>
<circle cx="6.78695" cy="53.326" r="6.78695" fill="#F9F9F9"/>
<circle cx="30.0565" cy="53.326" r="6.78695" fill="#F9F9F9"/>
<circle cx="53.326" cy="53.326" r="6.78695" fill="#F9F9F9"/>
<circle cx="76.5955" cy="53.326" r="6.78695" fill="#F9F9F9"/>
<circle cx="99.8651" cy="53.326" r="6.78695" fill="#F9F9F9"/>
<circle cx="123.135" cy="53.326" r="6.78695" fill="#F9F9F9"/>
<circle cx="146.404" cy="53.326" r="6.78695" fill="#F9F9F9"/>
<circle cx="169.674" cy="53.326" r="6.78695" fill="#F9F9F9"/>
<circle cx="192.943" cy="53.326" r="6.78695" fill="#F9F9F9"/>
<circle cx="216.213" cy="53.326" r="6.78695" fill="#F9F9F9"/>
<circle cx="239.484" cy="53.326" r="6.78695" fill="#F9F9F9"/>
<circle cx="6.78695" cy="76.596" r="6.78695" fill="#F9F9F9"/>
<circle cx="30.0565" cy="76.596" r="6.78695" fill="#F9F9F9"/>
<circle cx="53.326" cy="76.596" r="6.78695" fill="#F9F9F9"/>
<circle cx="76.5955" cy="76.596" r="6.78695" fill="#F9F9F9"/>
<circle cx="99.8651" cy="76.596" r="6.78695" fill="#F9F9F9"/>
<circle cx="123.135" cy="76.596" r="6.78695" fill="#F9F9F9"/>
<circle cx="146.404" cy="76.596" r="6.78695" fill="#F9F9F9"/>
<circle cx="169.674" cy="76.596" r="6.78695" fill="#F9F9F9"/>
<circle cx="192.943" cy="76.596" r="6.78695" fill="#F9F9F9"/>
<circle cx="216.213" cy="76.596" r="6.78695" fill="#F9F9F9"/>
<circle cx="239.484" cy="76.596" r="6.78695" fill="#F9F9F9"/>
<circle cx="6.78695" cy="99.8651" r="6.78695" fill="#F9F9F9"/>
<circle cx="30.0565" cy="99.8651" r="6.78695" fill="#F9F9F9"/>
<circle cx="53.326" cy="99.8651" r="6.78695" fill="#F9F9F9"/>
<circle cx="76.5955" cy="99.8651" r="6.78695" fill="#F9F9F9"/>
<circle cx="99.8651" cy="99.8651" r="6.78695" fill="#F9F9F9"/>
<circle cx="123.135" cy="99.8651" r="6.78695" fill="#F9F9F9"/>
<circle cx="146.404" cy="99.8651" r="6.78695" fill="#F9F9F9"/>
<circle cx="169.674" cy="99.8651" r="6.78695" fill="#F9F9F9"/>
<circle cx="192.943" cy="99.8651" r="6.78695" fill="#F9F9F9"/>
<circle cx="216.213" cy="99.8651" r="6.78695" fill="#F9F9F9"/>
<circle cx="239.484" cy="99.8651" r="6.78695" fill="#F9F9F9"/>
<circle cx="6.78695" cy="123.135" r="6.78695" fill="#F9F9F9"/>
<circle cx="30.0565" cy="123.135" r="6.78695" fill="#F9F9F9"/>
<circle cx="53.326" cy="123.135" r="6.78695" fill="#F9F9F9"/>
<circle cx="76.5955" cy="123.135" r="6.78695" fill="#F9F9F9"/>
<circle cx="99.8651" cy="123.135" r="6.78695" fill="#F9F9F9"/>
<circle cx="123.135" cy="123.135" r="6.78695" fill="#F9F9F9"/>
<circle cx="146.404" cy="123.135" r="6.78695" fill="#F9F9F9"/>
<circle cx="169.674" cy="123.135" r="6.78695" fill="#F9F9F9"/>
<circle cx="192.943" cy="123.135" r="6.78695" fill="#F9F9F9"/>
<circle cx="216.213" cy="123.135" r="6.78695" fill="#F9F9F9"/>
<circle cx="239.484" cy="123.135" r="6.78695" fill="#F9F9F9"/>
<circle cx="6.78695" cy="146.404" r="6.78695" fill="#F9F9F9"/>
<circle cx="30.0565" cy="146.404" r="6.78695" fill="#F9F9F9"/>
<circle cx="53.326" cy="146.404" r="6.78695" fill="#F9F9F9"/>
<circle cx="76.5955" cy="146.404" r="6.78695" fill="#F9F9F9"/>
<circle cx="99.8651" cy="146.404" r="6.78695" fill="#F9F9F9"/>
<circle cx="123.135" cy="146.404" r="6.78695" fill="#F9F9F9"/>
<circle cx="146.404" cy="146.404" r="6.78695" fill="#F9F9F9"/>
<circle cx="169.674" cy="146.404" r="6.78695" fill="#F9F9F9"/>
<circle cx="192.943" cy="146.404" r="6.78695" fill="#F9F9F9"/>
<circle cx="216.213" cy="146.404" r="6.78695" fill="#F9F9F9"/>
<circle cx="239.484" cy="146.404" r="6.78695" fill="#F9F9F9"/>
<circle cx="6.78695" cy="169.674" r="6.78695" fill="#F9F9F9"/>
<circle cx="30.0565" cy="169.674" r="6.78695" fill="#F9F9F9"/>
<circle cx="53.326" cy="169.674" r="6.78695" fill="#F9F9F9"/>
<circle cx="76.5955" cy="169.674" r="6.78695" fill="#F9F9F9"/>
<circle cx="99.8651" cy="169.674" r="6.78695" fill="#F9F9F9"/>
<circle cx="123.135" cy="169.674" r="6.78695" fill="#F9F9F9"/>
<circle cx="146.404" cy="169.674" r="6.78695" fill="#F9F9F9"/>
<circle cx="169.674" cy="169.674" r="6.78695" fill="#F9F9F9"/>
<circle cx="192.943" cy="169.674" r="6.78695" fill="#F9F9F9"/>
<circle cx="216.213" cy="169.674" r="6.78695" fill="#F9F9F9"/>
<circle cx="239.484" cy="169.674" r="6.78695" fill="#F9F9F9"/>
<circle cx="6.78695" cy="192.944" r="6.78695" fill="#F9F9F9"/>
<circle cx="30.0565" cy="192.944" r="6.78695" fill="#F9F9F9"/>
<circle cx="53.326" cy="192.944" r="6.78695" fill="#F9F9F9"/>
<circle cx="76.5955" cy="192.944" r="6.78695" fill="#F9F9F9"/>
<circle cx="99.8651" cy="192.944" r="6.78695" fill="#F9F9F9"/>
<circle cx="123.135" cy="192.944" r="6.78695" fill="#F9F9F9"/>
<circle cx="146.404" cy="192.944" r="6.78695" fill="#F9F9F9"/>
<circle cx="169.674" cy="192.944" r="6.78695" fill="#F9F9F9"/>
<circle cx="192.943" cy="192.944" r="6.78695" fill="#F9F9F9"/>
<circle cx="216.213" cy="192.944" r="6.78695" fill="#F9F9F9"/>
<circle cx="239.484" cy="192.944" r="6.78695" fill="#F9F9F9"/>
<circle cx="6.78695" cy="216.213" r="6.78695" fill="#F9F9F9"/>
<circle cx="30.0565" cy="216.213" r="6.78695" fill="#F9F9F9"/>
<circle cx="53.326" cy="216.213" r="6.78695" fill="#F9F9F9"/>
<circle cx="76.5955" cy="216.213" r="6.78695" fill="#F9F9F9"/>
<circle cx="99.8651" cy="216.213" r="6.78695" fill="#F9F9F9"/>
<circle cx="123.135" cy="216.213" r="6.78695" fill="#F9F9F9"/>
<circle cx="146.404" cy="216.213" r="6.78695" fill="#F9F9F9"/>
<circle cx="169.674" cy="216.213" r="6.78695" fill="#F9F9F9"/>
<circle cx="192.943" cy="216.213" r="6.78695" fill="#F9F9F9"/>
<circle cx="216.213" cy="216.213" r="6.78695" fill="#F9F9F9"/>
<circle cx="239.484" cy="216.213" r="6.78695" fill="#F9F9F9"/>
</svg>
