<svg width="59" height="60" viewBox="0 0 59 60" fill="none" xmlns="http://www.w3.org/2000/svg">
<g clip-path="url(#clip0)">
<path d="M6.36779 4.15088C4.97058 4.15088 3.83398 5.28792 3.83398 6.68468C3.83398 8.0819 4.97058 9.21894 6.36779 9.21894C7.76501 9.21894 8.90205 8.0819 8.90205 6.68468C8.90205 5.28792 7.76501 4.15088 6.36779 4.15088ZM6.36779 7.49178C5.92306 7.49178 5.5607 7.12987 5.5607 6.68468C5.5607 6.23995 5.92306 5.87804 6.36779 5.87804C6.81298 5.87804 7.17489 6.23995 7.17489 6.68468C7.17489 7.12987 6.81298 7.49178 6.36779 7.49178Z" fill="url(#paint0_linear)"/>
<path d="M12.8194 4.15088C11.4222 4.15088 10.2852 5.28792 10.2852 6.68468C10.2852 8.0819 11.4222 9.21894 12.8194 9.21894C14.2166 9.21894 15.3532 8.0819 15.3532 6.68468C15.3532 5.28792 14.2166 4.15088 12.8194 4.15088ZM12.8194 7.49178C12.3742 7.49178 12.0123 7.12987 12.0123 6.68468C12.0123 6.23995 12.3742 5.87804 12.8194 5.87804C13.2641 5.87804 13.6265 6.23995 13.6265 6.68468C13.6265 7.12987 13.2641 7.49178 12.8194 7.49178Z" fill="url(#paint1_linear)"/>
<path d="M19.2721 4.15088C17.8749 4.15088 16.7383 5.28792 16.7383 6.68468C16.7383 8.0819 17.8749 9.21894 19.2721 9.21894C20.6693 9.21894 21.8063 8.0819 21.8063 6.68468C21.8063 5.28792 20.6693 4.15088 19.2721 4.15088ZM19.2721 7.49178C18.8274 7.49178 18.465 7.12987 18.465 6.68468C18.465 6.23995 18.8274 5.87804 19.2721 5.87804C19.7173 5.87804 20.0792 6.23995 20.0792 6.68468C20.0792 7.12987 19.7173 7.49178 19.2721 7.49178Z" fill="url(#paint2_linear)"/>
<path d="M58.0709 17.8708C58.548 17.8708 58.9347 17.4842 58.9347 17.007L58.9999 4.63645C58.9999 2.54108 57.2953 0.836426 55.1999 0.836426H3.80048C1.70511 0.836426 0 2.54153 0 4.6369V46.4169C0 48.316 1.40037 49.8942 3.22251 50.1733C3.41111 50.2026 3.60422 50.2174 3.80048 50.2174H20.6022V53.3143H17.995C16.2561 53.3143 14.8409 54.7291 14.8409 56.468V58.3338C14.8409 59.1274 15.4864 59.7728 16.28 59.7728H20.3978C20.8745 59.7728 21.2612 59.3862 21.2612 58.909C21.2612 58.4323 20.8745 58.0457 20.3978 58.0457H16.5681V56.468C16.5681 55.6811 17.2082 55.041 17.995 55.041H40.9397C41.7265 55.041 42.3666 55.6811 42.3666 56.468V58.0457H25.7585C25.2818 58.0457 24.8951 58.4323 24.8951 58.909C24.8951 59.3862 25.2818 59.7728 25.7585 59.7728H42.6542C43.4478 59.7728 44.0933 59.1274 44.0933 58.3338V56.468C44.0933 54.7291 42.6785 53.3143 40.9392 53.3143H38.332V50.2174H55.1342C55.3305 50.2174 55.5236 50.2026 55.7117 50.1733C57.5343 49.8942 58.9342 48.316 58.9342 46.4169V22.3609C58.9342 21.8838 58.548 21.4971 58.0709 21.4971C57.5942 21.4971 57.2075 21.8838 57.2075 22.3609V41.4146H30.2157V12.5822H57.2075V17.007C57.2075 17.4842 57.5942 17.8708 58.0709 17.8708V17.8708ZM1.79063 12.5822H28.4885V41.3525H1.79063V12.5822ZM36.6053 53.3143H22.3293V50.2174H36.6053V53.3143ZM57.2075 43.1418V46.4169C57.2075 47.4887 56.3901 48.3732 55.3458 48.4799C55.276 48.4866 55.2058 48.4902 55.1342 48.4902H3.80048C3.72891 48.4902 3.65824 48.4866 3.58892 48.4799C2.54461 48.3732 1.72716 47.4887 1.72716 46.4169V43.1418H57.2075ZM29.3523 10.855H1.79063V4.63645C1.79063 3.49356 2.72061 2.56359 3.86395 2.56359H55.1342C56.2775 2.56359 57.2075 3.49356 57.2075 4.6369V10.855H29.3523Z" fill="url(#paint3_linear)"/>
<path d="M5.40482 16.0246H9.77968C10.2564 16.0246 10.643 15.6383 10.643 15.1609C10.643 14.684 10.2564 14.2971 9.77968 14.2971H5.40482C4.92768 14.2971 4.54102 14.684 4.54102 15.1609C4.54102 15.6383 4.92768 16.0246 5.40482 16.0246Z" fill="url(#paint4_linear)"/>
<path d="M12.7735 16.0246H14.8459C15.3226 16.0246 15.7093 15.6383 15.7093 15.1609C15.7093 14.684 15.3226 14.2971 14.8459 14.2971H12.7735C12.2964 14.2971 11.9102 14.684 11.9102 15.1609C11.9102 15.6383 12.2964 16.0246 12.7735 16.0246Z" fill="url(#paint5_linear)"/>
<path d="M11.9681 17.344H9.08992C8.61323 17.344 8.22656 17.7308 8.22656 18.2082C8.22656 18.6851 8.61323 19.072 9.08992 19.072H11.9681C12.4452 19.072 12.8319 18.6851 12.8319 18.2082C12.8319 17.7308 12.4452 17.344 11.9681 17.344Z" fill="url(#paint6_linear)"/>
<path d="M25.5521 20.5017H22.6739C22.1972 20.5017 21.8105 20.8886 21.8105 21.3655C21.8105 21.8424 22.1972 22.2292 22.6739 22.2292H25.5521C26.0292 22.2292 26.4154 21.8424 26.4154 21.3655C26.4154 20.8886 26.0292 20.5017 25.5521 20.5017Z" fill="url(#paint7_linear)"/>
<path d="M13.752 18.2082C13.752 18.6851 14.1386 19.072 14.6153 19.072H21.5231C22.0002 19.072 22.3869 18.6851 22.3869 18.2082C22.3869 17.7308 22.0002 17.344 21.5231 17.344H14.6153C14.1386 17.344 13.752 17.7308 13.752 18.2082Z" fill="url(#paint8_linear)"/>
<path d="M10.9883 21.3655C10.9883 21.8424 11.3749 22.2292 11.8521 22.2292H13.3488C13.8255 22.2292 14.2121 21.8424 14.2121 21.3655C14.2121 20.8886 13.8255 20.5017 13.3488 20.5017H11.8521C11.3749 20.5017 10.9883 20.8886 10.9883 21.3655Z" fill="url(#paint9_linear)"/>
<path d="M20.0258 22.2292C20.5029 22.2292 20.8896 21.8424 20.8896 21.3655C20.8896 20.8886 20.5029 20.5017 20.0258 20.5017H15.8814C15.4042 20.5017 15.0176 20.8886 15.0176 21.3655C15.0176 21.8424 15.4042 22.2292 15.8814 22.2292H20.0258Z" fill="url(#paint10_linear)"/>
<path d="M10.643 32.5566C10.643 32.0793 10.2564 31.6929 9.77968 31.6929H5.40482C4.92768 31.6929 4.54102 32.0793 4.54102 32.5566C4.54102 33.0336 4.92768 33.4204 5.40482 33.4204H9.77968C10.2564 33.4204 10.643 33.0336 10.643 32.5566Z" fill="url(#paint11_linear)"/>
<path d="M12.7735 31.6929C12.2964 31.6929 11.9102 32.0793 11.9102 32.5566C11.9102 33.0336 12.2964 33.4204 12.7735 33.4204H14.8459C15.3226 33.4204 15.7093 33.0336 15.7093 32.5566C15.7093 32.0793 15.3226 31.6929 14.8459 31.6929H12.7735Z" fill="url(#paint12_linear)"/>
<path d="M12.8319 35.6057C12.8319 35.1288 12.4452 34.7419 11.9681 34.7419H9.08992C8.61323 34.7419 8.22656 35.1288 8.22656 35.6057C8.22656 36.0831 8.61323 36.4699 9.08992 36.4699H11.9681C12.4452 36.4699 12.8319 36.0831 12.8319 35.6057Z" fill="url(#paint13_linear)"/>
<path d="M13.3488 37.8987H11.8521C11.3749 37.8987 10.9883 38.2851 10.9883 38.7624C10.9883 39.2394 11.3749 39.6262 11.8521 39.6262H13.3488C13.8255 39.6262 14.2121 39.2394 14.2121 38.7624C14.2121 38.2851 13.8255 37.8987 13.3488 37.8987Z" fill="url(#paint14_linear)"/>
<path d="M25.5521 37.8987H22.6739C22.1972 37.8987 21.8105 38.2851 21.8105 38.7624C21.8105 39.2394 22.1972 39.6262 22.6739 39.6262H25.5521C26.0292 39.6262 26.4154 39.2394 26.4154 38.7624C26.4154 38.2851 26.0292 37.8987 25.5521 37.8987Z" fill="url(#paint15_linear)"/>
<path d="M22.3869 35.6057C22.3869 35.1288 22.0002 34.7419 21.5231 34.7419H14.6153C14.1386 34.7419 13.752 35.1288 13.752 35.6057C13.752 36.0831 14.1386 36.4699 14.6153 36.4699H21.5231C22.0002 36.4699 22.3869 36.0831 22.3869 35.6057Z" fill="url(#paint16_linear)"/>
<path d="M20.0258 37.8987H15.8814C15.4042 37.8987 15.0176 38.2851 15.0176 38.7624C15.0176 39.2394 15.4042 39.6262 15.8814 39.6262H20.0258C20.5029 39.6262 20.8896 39.2394 20.8896 38.7624C20.8896 38.2851 20.5029 37.8987 20.0258 37.8987Z" fill="url(#paint17_linear)"/>
<path d="M5.40482 26.186H7.8225C8.29919 26.186 8.68586 25.7992 8.68586 25.3223C8.68586 24.8449 8.29919 24.4585 7.8225 24.4585H5.40482C4.92768 24.4585 4.54102 24.8449 4.54102 25.3223C4.54102 25.7992 4.92768 26.186 5.40482 26.186Z" fill="url(#paint18_linear)"/>
<path d="M19.9686 25.3223C19.9686 24.8449 19.5824 24.4585 19.1053 24.4585H10.2403C9.76362 24.4585 9.37695 24.8449 9.37695 25.3223C9.37695 25.7992 9.76362 26.186 10.2403 26.186H19.1053C19.5824 26.186 19.9686 25.7992 19.9686 25.3223Z" fill="url(#paint19_linear)"/>
<path d="M18.3582 28.3704C18.3582 27.8934 17.9715 27.5066 17.4944 27.5066H9.08992C8.61323 27.5066 8.22656 27.8934 8.22656 28.3704C8.22656 28.8477 8.61323 29.2346 9.08992 29.2346H17.4944C17.9715 29.2346 18.3582 28.8477 18.3582 28.3704Z" fill="url(#paint20_linear)"/>
<path d="M19.9126 29.2346H21.5241C22.0013 29.2346 22.3879 28.8477 22.3879 28.3704C22.3879 27.8934 22.0013 27.5066 21.5241 27.5066H19.9126C19.4355 27.5066 19.0488 27.8934 19.0488 28.3704C19.0488 28.8477 19.4355 29.2346 19.9126 29.2346Z" fill="url(#paint21_linear)"/>
<path d="M39.5264 34.2141H34.0005C33.5234 34.2141 33.1367 34.601 33.1367 35.0779C33.1367 35.5552 33.5234 35.9416 34.0005 35.9416H39.5264C40.0035 35.9416 40.3902 35.5552 40.3902 35.0779C40.3902 34.601 40.0035 34.2141 39.5264 34.2141Z" fill="url(#paint22_linear)"/>
<path d="M53.5722 34.2141H42.6348C42.1582 34.2141 41.7715 34.601 41.7715 35.0779C41.7715 35.5552 42.1582 35.9416 42.6348 35.9416H53.5722C54.0494 35.9416 54.436 35.5552 54.436 35.0779C54.436 34.601 54.0494 34.2141 53.5722 34.2141Z" fill="url(#paint23_linear)"/>
<path d="M39.5264 37.5532H34.0005C33.5234 37.5532 33.1367 37.9401 33.1367 38.4174C33.1367 38.8944 33.5234 39.2812 34.0005 39.2812H39.5264C40.0035 39.2812 40.3902 38.8944 40.3902 38.4174C40.3902 37.9401 40.0035 37.5532 39.5264 37.5532Z" fill="url(#paint24_linear)"/>
<path d="M53.5722 37.5532H42.6348C42.1582 37.5532 41.7715 37.9401 41.7715 38.4174C41.7715 38.8944 42.1582 39.2812 42.6348 39.2812H53.5722C54.0494 39.2812 54.436 38.8944 54.436 38.4174C54.436 37.9401 54.0494 37.5532 53.5722 37.5532Z" fill="url(#paint25_linear)"/>
<path d="M54.4635 16.5284C54.4635 15.2982 53.4628 14.2971 52.2326 14.2971H35.3426C34.1124 14.2971 33.1113 15.2982 33.1113 16.5284V28.2229V28.2238V30.2692C33.1113 31.4994 34.1124 32.5005 35.3426 32.5005H52.2326C53.4628 32.5005 54.4635 31.4994 54.4635 30.2692V16.5284ZM52.7368 30.2692C52.7368 30.5474 52.5103 30.7734 52.2326 30.7734H35.3426C35.0645 30.7734 34.8385 30.5474 34.8385 30.2692V28.5812L41.1629 22.26L45.5278 27.1791C45.8443 27.536 46.3903 27.5684 46.7468 27.252C47.1038 26.9355 47.1362 26.39 46.8197 26.033L46.4236 25.5869L48.3754 23.6361L52.7368 28.5515V30.2692ZM52.7368 25.9493L49.4134 22.2042C49.1645 21.9237 48.8066 21.7563 48.4317 21.745C48.0549 21.7342 47.6894 21.8796 47.4243 22.1448L45.2753 24.2923L42.2009 20.8281C41.952 20.5472 41.5941 20.3798 41.2192 20.369C40.8446 20.3586 40.4769 20.5031 40.2118 20.7682L34.8385 26.1393V16.5284C34.8385 16.2503 35.0645 16.0238 35.3426 16.0238H52.2326C52.5108 16.0238 52.7368 16.2503 52.7368 16.5284V25.9493Z" fill="url(#paint26_linear)"/>
</g>
<defs>
<linearGradient id="paint0_linear" x1="6.36802" y1="4.15088" x2="6.36802" y2="9.21894" gradientUnits="userSpaceOnUse">
<stop stop-color="#3949F8"/>
<stop offset="1" stop-color="#FE4797"/>
</linearGradient>
<linearGradient id="paint1_linear" x1="12.8192" y1="4.15088" x2="12.8192" y2="9.21894" gradientUnits="userSpaceOnUse">
<stop stop-color="#3949F8"/>
<stop offset="1" stop-color="#FE4797"/>
</linearGradient>
<linearGradient id="paint2_linear" x1="19.2723" y1="4.15088" x2="19.2723" y2="9.21894" gradientUnits="userSpaceOnUse">
<stop stop-color="#3949F8"/>
<stop offset="1" stop-color="#FE4797"/>
</linearGradient>
<linearGradient id="paint3_linear" x1="29.5" y1="0.836426" x2="29.5" y2="59.7728" gradientUnits="userSpaceOnUse">
<stop stop-color="#3949F8"/>
<stop offset="1" stop-color="#FE4797"/>
</linearGradient>
<linearGradient id="paint4_linear" x1="7.59203" y1="14.2971" x2="7.59203" y2="16.0246" gradientUnits="userSpaceOnUse">
<stop stop-color="#3949F8"/>
<stop offset="1" stop-color="#FE4797"/>
</linearGradient>
<linearGradient id="paint5_linear" x1="13.8097" y1="14.2971" x2="13.8097" y2="16.0246" gradientUnits="userSpaceOnUse">
<stop stop-color="#3949F8"/>
<stop offset="1" stop-color="#FE4797"/>
</linearGradient>
<linearGradient id="paint6_linear" x1="10.5292" y1="17.344" x2="10.5292" y2="19.072" gradientUnits="userSpaceOnUse">
<stop stop-color="#3949F8"/>
<stop offset="1" stop-color="#FE4797"/>
</linearGradient>
<linearGradient id="paint7_linear" x1="24.113" y1="20.5017" x2="24.113" y2="22.2292" gradientUnits="userSpaceOnUse">
<stop stop-color="#3949F8"/>
<stop offset="1" stop-color="#FE4797"/>
</linearGradient>
<linearGradient id="paint8_linear" x1="18.0694" y1="17.344" x2="18.0694" y2="19.072" gradientUnits="userSpaceOnUse">
<stop stop-color="#3949F8"/>
<stop offset="1" stop-color="#FE4797"/>
</linearGradient>
<linearGradient id="paint9_linear" x1="12.6002" y1="20.5017" x2="12.6002" y2="22.2292" gradientUnits="userSpaceOnUse">
<stop stop-color="#3949F8"/>
<stop offset="1" stop-color="#FE4797"/>
</linearGradient>
<linearGradient id="paint10_linear" x1="17.9536" y1="20.5017" x2="17.9536" y2="22.2292" gradientUnits="userSpaceOnUse">
<stop stop-color="#3949F8"/>
<stop offset="1" stop-color="#FE4797"/>
</linearGradient>
<linearGradient id="paint11_linear" x1="7.59203" y1="31.6929" x2="7.59203" y2="33.4204" gradientUnits="userSpaceOnUse">
<stop stop-color="#3949F8"/>
<stop offset="1" stop-color="#FE4797"/>
</linearGradient>
<linearGradient id="paint12_linear" x1="13.8097" y1="31.6929" x2="13.8097" y2="33.4204" gradientUnits="userSpaceOnUse">
<stop stop-color="#3949F8"/>
<stop offset="1" stop-color="#FE4797"/>
</linearGradient>
<linearGradient id="paint13_linear" x1="10.5292" y1="34.7419" x2="10.5292" y2="36.4699" gradientUnits="userSpaceOnUse">
<stop stop-color="#3949F8"/>
<stop offset="1" stop-color="#FE4797"/>
</linearGradient>
<linearGradient id="paint14_linear" x1="12.6002" y1="37.8987" x2="12.6002" y2="39.6262" gradientUnits="userSpaceOnUse">
<stop stop-color="#3949F8"/>
<stop offset="1" stop-color="#FE4797"/>
</linearGradient>
<linearGradient id="paint15_linear" x1="24.113" y1="37.8987" x2="24.113" y2="39.6262" gradientUnits="userSpaceOnUse">
<stop stop-color="#3949F8"/>
<stop offset="1" stop-color="#FE4797"/>
</linearGradient>
<linearGradient id="paint16_linear" x1="18.0694" y1="34.7419" x2="18.0694" y2="36.4699" gradientUnits="userSpaceOnUse">
<stop stop-color="#3949F8"/>
<stop offset="1" stop-color="#FE4797"/>
</linearGradient>
<linearGradient id="paint17_linear" x1="17.9536" y1="37.8987" x2="17.9536" y2="39.6262" gradientUnits="userSpaceOnUse">
<stop stop-color="#3949F8"/>
<stop offset="1" stop-color="#FE4797"/>
</linearGradient>
<linearGradient id="paint18_linear" x1="6.61344" y1="24.4585" x2="6.61344" y2="26.186" gradientUnits="userSpaceOnUse">
<stop stop-color="#3949F8"/>
<stop offset="1" stop-color="#FE4797"/>
</linearGradient>
<linearGradient id="paint19_linear" x1="14.6728" y1="24.4585" x2="14.6728" y2="26.186" gradientUnits="userSpaceOnUse">
<stop stop-color="#3949F8"/>
<stop offset="1" stop-color="#FE4797"/>
</linearGradient>
<linearGradient id="paint20_linear" x1="13.2924" y1="27.5066" x2="13.2924" y2="29.2346" gradientUnits="userSpaceOnUse">
<stop stop-color="#3949F8"/>
<stop offset="1" stop-color="#FE4797"/>
</linearGradient>
<linearGradient id="paint21_linear" x1="20.7184" y1="27.5066" x2="20.7184" y2="29.2346" gradientUnits="userSpaceOnUse">
<stop stop-color="#3949F8"/>
<stop offset="1" stop-color="#FE4797"/>
</linearGradient>
<linearGradient id="paint22_linear" x1="36.7635" y1="34.2141" x2="36.7635" y2="35.9416" gradientUnits="userSpaceOnUse">
<stop stop-color="#3949F8"/>
<stop offset="1" stop-color="#FE4797"/>
</linearGradient>
<linearGradient id="paint23_linear" x1="48.1038" y1="34.2141" x2="48.1038" y2="35.9416" gradientUnits="userSpaceOnUse">
<stop stop-color="#3949F8"/>
<stop offset="1" stop-color="#FE4797"/>
</linearGradient>
<linearGradient id="paint24_linear" x1="36.7635" y1="37.5532" x2="36.7635" y2="39.2812" gradientUnits="userSpaceOnUse">
<stop stop-color="#3949F8"/>
<stop offset="1" stop-color="#FE4797"/>
</linearGradient>
<linearGradient id="paint25_linear" x1="48.1038" y1="37.5532" x2="48.1038" y2="39.2812" gradientUnits="userSpaceOnUse">
<stop stop-color="#3949F8"/>
<stop offset="1" stop-color="#FE4797"/>
</linearGradient>
<linearGradient id="paint26_linear" x1="43.7874" y1="14.2971" x2="43.7874" y2="32.5005" gradientUnits="userSpaceOnUse">
<stop stop-color="#3949F8"/>
<stop offset="1" stop-color="#FE4797"/>
</linearGradient>
<clipPath id="clip0">
<rect width="59.0001" height="59" fill="white" transform="translate(0 0.836426)"/>
</clipPath>
</defs>
</svg>
