<svg width="59" height="59" viewBox="0 0 59 59" fill="none" xmlns="http://www.w3.org/2000/svg">
<path d="M53.9644 0H10.6837C8.08969 0 5.97929 2.1104 5.97929 4.70442V19.369L0.609663 24.7387C0.433718 24.9146 0.333984 25.1545 0.333984 25.4039V58.3348H2.21575V25.7934L5.97929 22.0299V24.463C5.97929 24.9823 6.4008 25.4039 6.92017 25.4039H18.0913C17.6726 27.025 16.1973 28.2265 14.4472 28.2265H10.6837C10.1643 28.2265 9.74282 28.648 9.74282 29.1674C9.74282 32.3325 7.26265 34.8127 4.09752 34.8127V36.6945C4.75049 36.6945 5.379 36.6088 5.97929 36.4592V49.8668C5.97929 52.4609 8.08969 54.5713 10.6837 54.5713H13.5064V58.3348H15.3881V54.5713H30.4423V56.453C30.4423 56.7024 30.5411 56.9423 30.7179 57.1182L32.5997 59L33.9301 57.6696L32.324 56.0635V50.2564L34.2058 48.3727V52.6895H36.0876V26.8133C36.0876 26.0361 36.7198 25.4039 37.5008 25.4039C38.2779 25.4039 38.9102 26.0361 38.9102 26.8133V39.9857V47.9851H40.792V39.9857C40.792 39.2085 41.4243 38.5762 42.2052 38.5762C42.9824 38.5762 43.6146 39.2085 43.6146 39.9857V47.9851H45.4964V39.9857C45.4964 39.2085 46.1287 38.5762 46.9096 38.5762C47.6868 38.5762 48.3191 39.2085 48.3191 39.9857V47.9851H49.2599H50.2008L50.2046 39.9838C50.2046 39.2076 50.8369 38.5753 51.614 38.5753C52.3912 38.5753 53.0235 39.2076 53.0235 39.9847V58.3348H54.9052V54.4762C57.0495 54.0387 58.6688 52.1381 58.6688 49.8668V4.70442C58.6688 2.1104 56.5584 0 53.9644 0ZM56.787 49.8668C56.787 51.0919 55.9976 52.1268 54.9052 52.5164V39.9857C54.9052 38.1707 53.429 36.6945 51.614 36.6945C50.692 36.6945 49.8593 37.0783 49.2618 37.6918C48.6634 37.0783 47.8298 36.6945 46.9059 36.6945C45.9847 36.6945 45.153 37.0774 44.5555 37.689C43.9571 37.0774 43.1244 36.6945 42.2014 36.6945C41.6952 36.6945 41.221 36.8187 40.792 37.0238V26.8133C40.792 24.9983 39.3157 23.5221 37.497 23.5221C35.682 23.5221 34.2058 24.9983 34.2058 26.8133V45.71L30.717 49.2016C30.5411 49.3785 30.4423 49.6175 30.4423 49.8668V52.6895H10.6837C9.12748 52.6895 7.86105 51.4231 7.86105 49.8668V35.7094C9.87078 34.57 11.2783 32.5367 11.5691 30.1083H14.4472C17.5606 30.1083 20.0925 27.5764 20.0925 24.463C20.0925 23.9436 19.671 23.5221 19.1517 23.5221H7.86105V19.7586V4.70442C7.86105 3.1482 9.12748 1.88177 10.6837 1.88177H53.9644C55.5206 1.88177 56.787 3.1482 56.787 4.70442V17.0789V22.0299V49.8668Z" fill="url(#paint0_linear)"/>
<path d="M26.6772 3.76367H12.5639C12.0446 3.76367 11.623 4.18519 11.623 4.70456V9.40897C11.623 9.92834 12.0446 10.3499 12.5639 10.3499H26.6772C27.1966 10.3499 27.6181 9.92834 27.6181 9.40897V4.70456C27.6181 4.18519 27.1966 3.76367 26.6772 3.76367ZM25.7363 8.46809H13.5048V5.64544H25.7363V8.46809Z" fill="url(#paint1_linear)"/>
<path d="M52.0815 3.76367H37.9682C37.4489 3.76367 37.0273 4.18519 37.0273 4.70456V9.40897C37.0273 9.92834 37.4489 10.3499 37.9682 10.3499H52.0815C52.6008 10.3499 53.0224 9.92834 53.0224 9.40897V4.70456C53.0224 4.18519 52.6008 3.76367 52.0815 3.76367ZM51.1406 8.46809H38.9091V5.64544H51.1406V8.46809Z" fill="url(#paint2_linear)"/>
<path d="M26.6772 31.9897H12.5639C12.0446 31.9897 11.623 32.4113 11.623 32.9306V37.635C11.623 38.1544 12.0446 38.5759 12.5639 38.5759H26.6772C27.1966 38.5759 27.6181 38.1544 27.6181 37.635V32.9306C27.6181 32.4113 27.1966 31.9897 26.6772 31.9897ZM25.7363 36.6942H13.5048V33.8715H25.7363V36.6942Z" fill="url(#paint3_linear)"/>
<path d="M33.2646 3.76367H31.3828V21.6405H33.2646V3.76367Z" fill="url(#paint4_linear)"/>
<path d="M21.9728 12.2314H11.623V14.1132H21.9728V12.2314Z" fill="url(#paint5_linear)"/>
<path d="M27.6176 12.2314H24.7949V14.1132H27.6176V12.2314Z" fill="url(#paint6_linear)"/>
<path d="M21.9728 15.9951H11.623V17.8769H21.9728V15.9951Z" fill="url(#paint7_linear)"/>
<path d="M27.6176 15.9951H24.7949V17.8769H27.6176V15.9951Z" fill="url(#paint8_linear)"/>
<path d="M21.9728 19.7583H11.623V21.6401H21.9728V19.7583Z" fill="url(#paint9_linear)"/>
<path d="M27.6176 19.7583H24.7949V21.6401H27.6176V19.7583Z" fill="url(#paint10_linear)"/>
<path d="M27.6176 23.522H24.7949V25.4037H27.6176V23.522Z" fill="url(#paint11_linear)"/>
<path d="M27.6176 27.2856H24.7949V29.1674H27.6176V27.2856Z" fill="url(#paint12_linear)"/>
<path d="M21.9728 40.458H11.623V42.3398H21.9728V40.458Z" fill="url(#paint13_linear)"/>
<path d="M27.6176 40.458H24.7949V42.3398H27.6176V40.458Z" fill="url(#paint14_linear)"/>
<path d="M21.9728 44.2217H11.623V46.1034H21.9728V44.2217Z" fill="url(#paint15_linear)"/>
<path d="M27.6176 44.2217H24.7949V46.1034H27.6176V44.2217Z" fill="url(#paint16_linear)"/>
<path d="M21.9728 47.9849H11.623V49.8666H21.9728V47.9849Z" fill="url(#paint17_linear)"/>
<path d="M27.6176 47.9849H24.7949V49.8666H27.6176V47.9849Z" fill="url(#paint18_linear)"/>
<path d="M47.3771 12.2314H37.0273V14.1132H47.3771V12.2314Z" fill="url(#paint19_linear)"/>
<path d="M53.0219 12.2314H50.1992V14.1132H53.0219V12.2314Z" fill="url(#paint20_linear)"/>
<path d="M47.3771 15.9951H37.0273V17.8769H47.3771V15.9951Z" fill="url(#paint21_linear)"/>
<path d="M53.0219 15.9951H50.1992V17.8769H53.0219V15.9951Z" fill="url(#paint22_linear)"/>
<path d="M47.3771 19.7583H37.0273V21.6401H47.3771V19.7583Z" fill="url(#paint23_linear)"/>
<path d="M53.0219 19.7583H50.1992V21.6401H53.0219V19.7583Z" fill="url(#paint24_linear)"/>
<path d="M47.3763 23.522H42.6719V25.4037H47.3763V23.522Z" fill="url(#paint25_linear)"/>
<path d="M53.0219 23.522H50.1992V25.4037H53.0219V23.522Z" fill="url(#paint26_linear)"/>
<path d="M47.3763 27.2856H42.6719V29.1674H47.3763V27.2856Z" fill="url(#paint27_linear)"/>
<path d="M53.0219 27.2856H50.1992V29.1674H53.0219V27.2856Z" fill="url(#paint28_linear)"/>
<path d="M47.3763 31.0493H42.6719V32.9311H47.3763V31.0493Z" fill="url(#paint29_linear)"/>
<path d="M53.0219 31.0493H50.1992V32.9311H53.0219V31.0493Z" fill="url(#paint30_linear)"/>
<defs>
<linearGradient id="paint0_linear" x1="29.5014" y1="0" x2="29.5014" y2="59" gradientUnits="userSpaceOnUse">
<stop stop-color="#3949F8"/>
<stop offset="1" stop-color="#FE4797"/>
</linearGradient>
<linearGradient id="paint1_linear" x1="19.6206" y1="3.76367" x2="19.6206" y2="10.3499" gradientUnits="userSpaceOnUse">
<stop stop-color="#3949F8"/>
<stop offset="1" stop-color="#FE4797"/>
</linearGradient>
<linearGradient id="paint2_linear" x1="45.0249" y1="3.76367" x2="45.0249" y2="10.3499" gradientUnits="userSpaceOnUse">
<stop stop-color="#3949F8"/>
<stop offset="1" stop-color="#FE4797"/>
</linearGradient>
<linearGradient id="paint3_linear" x1="19.6206" y1="31.9897" x2="19.6206" y2="38.5759" gradientUnits="userSpaceOnUse">
<stop stop-color="#3949F8"/>
<stop offset="1" stop-color="#FE4797"/>
</linearGradient>
<linearGradient id="paint4_linear" x1="32.3237" y1="3.76367" x2="32.3237" y2="21.6405" gradientUnits="userSpaceOnUse">
<stop stop-color="#3949F8"/>
<stop offset="1" stop-color="#FE4797"/>
</linearGradient>
<linearGradient id="paint5_linear" x1="16.7979" y1="12.2314" x2="16.7979" y2="14.1132" gradientUnits="userSpaceOnUse">
<stop stop-color="#3949F8"/>
<stop offset="1" stop-color="#FE4797"/>
</linearGradient>
<linearGradient id="paint6_linear" x1="26.2062" y1="12.2314" x2="26.2062" y2="14.1132" gradientUnits="userSpaceOnUse">
<stop stop-color="#3949F8"/>
<stop offset="1" stop-color="#FE4797"/>
</linearGradient>
<linearGradient id="paint7_linear" x1="16.7979" y1="15.9951" x2="16.7979" y2="17.8769" gradientUnits="userSpaceOnUse">
<stop stop-color="#3949F8"/>
<stop offset="1" stop-color="#FE4797"/>
</linearGradient>
<linearGradient id="paint8_linear" x1="26.2062" y1="15.9951" x2="26.2062" y2="17.8769" gradientUnits="userSpaceOnUse">
<stop stop-color="#3949F8"/>
<stop offset="1" stop-color="#FE4797"/>
</linearGradient>
<linearGradient id="paint9_linear" x1="16.7979" y1="19.7583" x2="16.7979" y2="21.6401" gradientUnits="userSpaceOnUse">
<stop stop-color="#3949F8"/>
<stop offset="1" stop-color="#FE4797"/>
</linearGradient>
<linearGradient id="paint10_linear" x1="26.2062" y1="19.7583" x2="26.2062" y2="21.6401" gradientUnits="userSpaceOnUse">
<stop stop-color="#3949F8"/>
<stop offset="1" stop-color="#FE4797"/>
</linearGradient>
<linearGradient id="paint11_linear" x1="26.2062" y1="23.522" x2="26.2062" y2="25.4037" gradientUnits="userSpaceOnUse">
<stop stop-color="#3949F8"/>
<stop offset="1" stop-color="#FE4797"/>
</linearGradient>
<linearGradient id="paint12_linear" x1="26.2062" y1="27.2856" x2="26.2062" y2="29.1674" gradientUnits="userSpaceOnUse">
<stop stop-color="#3949F8"/>
<stop offset="1" stop-color="#FE4797"/>
</linearGradient>
<linearGradient id="paint13_linear" x1="16.7979" y1="40.458" x2="16.7979" y2="42.3398" gradientUnits="userSpaceOnUse">
<stop stop-color="#3949F8"/>
<stop offset="1" stop-color="#FE4797"/>
</linearGradient>
<linearGradient id="paint14_linear" x1="26.2062" y1="40.458" x2="26.2062" y2="42.3398" gradientUnits="userSpaceOnUse">
<stop stop-color="#3949F8"/>
<stop offset="1" stop-color="#FE4797"/>
</linearGradient>
<linearGradient id="paint15_linear" x1="16.7979" y1="44.2217" x2="16.7979" y2="46.1034" gradientUnits="userSpaceOnUse">
<stop stop-color="#3949F8"/>
<stop offset="1" stop-color="#FE4797"/>
</linearGradient>
<linearGradient id="paint16_linear" x1="26.2062" y1="44.2217" x2="26.2062" y2="46.1034" gradientUnits="userSpaceOnUse">
<stop stop-color="#3949F8"/>
<stop offset="1" stop-color="#FE4797"/>
</linearGradient>
<linearGradient id="paint17_linear" x1="16.7979" y1="47.9849" x2="16.7979" y2="49.8666" gradientUnits="userSpaceOnUse">
<stop stop-color="#3949F8"/>
<stop offset="1" stop-color="#FE4797"/>
</linearGradient>
<linearGradient id="paint18_linear" x1="26.2062" y1="47.9849" x2="26.2062" y2="49.8666" gradientUnits="userSpaceOnUse">
<stop stop-color="#3949F8"/>
<stop offset="1" stop-color="#FE4797"/>
</linearGradient>
<linearGradient id="paint19_linear" x1="42.2022" y1="12.2314" x2="42.2022" y2="14.1132" gradientUnits="userSpaceOnUse">
<stop stop-color="#3949F8"/>
<stop offset="1" stop-color="#FE4797"/>
</linearGradient>
<linearGradient id="paint20_linear" x1="51.6105" y1="12.2314" x2="51.6105" y2="14.1132" gradientUnits="userSpaceOnUse">
<stop stop-color="#3949F8"/>
<stop offset="1" stop-color="#FE4797"/>
</linearGradient>
<linearGradient id="paint21_linear" x1="42.2022" y1="15.9951" x2="42.2022" y2="17.8769" gradientUnits="userSpaceOnUse">
<stop stop-color="#3949F8"/>
<stop offset="1" stop-color="#FE4797"/>
</linearGradient>
<linearGradient id="paint22_linear" x1="51.6105" y1="15.9951" x2="51.6105" y2="17.8769" gradientUnits="userSpaceOnUse">
<stop stop-color="#3949F8"/>
<stop offset="1" stop-color="#FE4797"/>
</linearGradient>
<linearGradient id="paint23_linear" x1="42.2022" y1="19.7583" x2="42.2022" y2="21.6401" gradientUnits="userSpaceOnUse">
<stop stop-color="#3949F8"/>
<stop offset="1" stop-color="#FE4797"/>
</linearGradient>
<linearGradient id="paint24_linear" x1="51.6105" y1="19.7583" x2="51.6105" y2="21.6401" gradientUnits="userSpaceOnUse">
<stop stop-color="#3949F8"/>
<stop offset="1" stop-color="#FE4797"/>
</linearGradient>
<linearGradient id="paint25_linear" x1="45.0241" y1="23.522" x2="45.0241" y2="25.4037" gradientUnits="userSpaceOnUse">
<stop stop-color="#3949F8"/>
<stop offset="1" stop-color="#FE4797"/>
</linearGradient>
<linearGradient id="paint26_linear" x1="51.6105" y1="23.522" x2="51.6105" y2="25.4037" gradientUnits="userSpaceOnUse">
<stop stop-color="#3949F8"/>
<stop offset="1" stop-color="#FE4797"/>
</linearGradient>
<linearGradient id="paint27_linear" x1="45.0241" y1="27.2856" x2="45.0241" y2="29.1674" gradientUnits="userSpaceOnUse">
<stop stop-color="#3949F8"/>
<stop offset="1" stop-color="#FE4797"/>
</linearGradient>
<linearGradient id="paint28_linear" x1="51.6105" y1="27.2856" x2="51.6105" y2="29.1674" gradientUnits="userSpaceOnUse">
<stop stop-color="#3949F8"/>
<stop offset="1" stop-color="#FE4797"/>
</linearGradient>
<linearGradient id="paint29_linear" x1="45.0241" y1="31.0493" x2="45.0241" y2="32.9311" gradientUnits="userSpaceOnUse">
<stop stop-color="#3949F8"/>
<stop offset="1" stop-color="#FE4797"/>
</linearGradient>
<linearGradient id="paint30_linear" x1="51.6105" y1="31.0493" x2="51.6105" y2="32.9311" gradientUnits="userSpaceOnUse">
<stop stop-color="#3949F8"/>
<stop offset="1" stop-color="#FE4797"/>
</linearGradient>
</defs>
</svg>
